<?xml version="1.0" standalone="no"?>
<!DOCTYPE svg PUBLIC "-//W3C//DTD SVG 1.1//EN" "http://www.w3.org/Graphics/SVG/1.1/DTD/svg11.dtd" >
<svg xmlns="http://www.w3.org/2000/svg" xmlns:xlink="http://www.w3.org/1999/xlink" version="1.1">
<metadata>
Created by FontForge 20160407 at Tue Sep 20 04:57:18 2016
 By Jimmy Warting
Copyright (c) 2015 by The Fontry. All rights reserved.
</metadata>
<defs>
<font id="DELIRIUMNCV" horiz-adv-x="263" >
  <font-face 
    font-family="DELIRIUM NCV"
    font-weight="400"
    font-stretch="normal"
    units-per-em="1000"
    panose-1="0 0 0 0 0 0 0 0 0 0"
    ascent="750"
    descent="-250"
    x-height="728"
    cap-height="728"
    bbox="-96 -224 796 945"
    underline-thickness="50"
    underline-position="-100"
    unicode-range="U+0020-FB04"
  />
<missing-glyph horiz-adv-x="50" 
 />
    <glyph glyph-name=".notdef" horiz-adv-x="50" 
 />
    <glyph glyph-name=".null" horiz-adv-x="0" 
 />
    <glyph glyph-name="nonmarkingreturn" horiz-adv-x="90" 
 />
    <glyph glyph-name="space" unicode=" " horiz-adv-x="100" 
 />
    <glyph glyph-name="D" unicode="D" horiz-adv-x="265" 
d="M156 657h-47v-586h47v586zM235 64q0 -26 -19 -45t-45 -19h-141v728h141q26 0 45 -19t19 -46v-599z" />
    <glyph glyph-name="E" unicode="E" horiz-adv-x="211" 
d="M30 0v728h166v-71h-87v-256h73v-72h-73v-258h87v-71h-166z" />
    <glyph glyph-name="F" unicode="F" horiz-adv-x="211" 
d="M30 0v728h166v-71h-87v-256h73v-72h-73v-329h-79z" />
    <glyph glyph-name="G" unicode="G" horiz-adv-x="264" 
d="M237 68q0 -32 -18 -50t-50 -18h-70q-31 0 -50 18t-19 50v592q0 30 19 49t50 19h70q32 0 50 -19t18 -49v-168h-79v165h-49v-586h49v258h-19v72h98v-333z" />
    <glyph glyph-name="H" unicode="H" horiz-adv-x="266" 
d="M157 401v327h79v-728h-79v329h-48v-329h-79v728h79v-327h48z" />
    <glyph glyph-name="I" unicode="I" horiz-adv-x="146" 
d="M33 728h80v-728h-80v728z" />
    <glyph glyph-name="J" unicode="J" horiz-adv-x="258" 
d="M25 236h79v-165h45v657h79v-660q0 -32 -18 -50t-50 -18h-67q-32 0 -50 18t-18 50v168z" />
    <glyph glyph-name="K" unicode="K" horiz-adv-x="262" 
d="M109 728v-327h16l47 327h78l-54 -331q15 -2 23 -8t11.5 -14t4 -17t0.5 -17v-341h-79v329h-47v-329h-79v728h79z" />
    <glyph glyph-name="L" unicode="L" horiz-adv-x="206" 
d="M30 0v728h79v-657h82v-71h-161z" />
    <glyph glyph-name="M" unicode="M" horiz-adv-x="376" 
d="M167 57l-58 359v-416h-79v728h93l65 -399l65 399h93v-728h-79v416l-58 -359h-42z" />
    <glyph glyph-name="N" unicode="N" horiz-adv-x="282" 
d="M100 728l74 -366v366h78v-728h-70l-74 376v-376h-78v728h70z" />
    <glyph glyph-name="O" unicode="O" 
d="M155 71v586h-46v-586h46zM233 68q0 -32 -18.5 -50t-49.5 -18h-67q-31 0 -49.5 18t-18.5 50v592q0 30 18.5 49t49.5 19h67q31 0 49.5 -19t18.5 -49v-592z" />
    <glyph glyph-name="P" unicode="P" horiz-adv-x="260" 
d="M109 329v-329h-79v728h139q27 0 46.5 -19t19.5 -46v-273q0 -26 -18 -43.5t-45 -17.5h-63zM156 401v256h-47v-256h47z" />
    <glyph glyph-name="Q" unicode="Q" 
d="M96 0q-30 1 -48 18.5t-18 49.5v592q0 30 18.5 49t49.5 19h67q31 0 49.5 -19t18.5 -49v-592q0 -32 -18 -49.5t-48 -18.5v-60h-71v60zM155 71v586h-46v-586h46z" />
    <glyph glyph-name="R" unicode="R" horiz-adv-x="265" 
d="M170 728q27 0 46 -19t19 -45v-242q0 -8 -1 -17.5t-5.5 -18t-13.5 -14.5t-24 -8q31 -5 37.5 -21.5t6.5 -32.5v-310h-79v329h-47v-329h-79v728h140zM156 401v256h-47v-256h47z" />
    <glyph glyph-name="S" unicode="S" horiz-adv-x="253" 
d="M149 236q0 9 -2 15t-7 14l-104 174q-8 14 -9.5 24t-1.5 22v182q0 32 18 46.5t50 14.5h67q32 0 50 -14.5t18 -46.5v-175h-79v165h-45v-165q0 -9 2.5 -15.5t6.5 -13.5l98 -164q6 -9 9 -16t5 -14t2.5 -16t0.5 -22v-170q0 -32 -18 -46.5t-50 -14.5h-67q-32 0 -50 14.5
t-18 46.5v175h79v-165h45v165z" />
    <glyph glyph-name="T" unicode="T" horiz-adv-x="231" 
d="M216 728v-71h-58v-657h-85v657h-58v71h201z" />
    <glyph glyph-name="U" unicode="U" 
d="M233 728v-660q0 -32 -18.5 -50t-49.5 -18h-67q-32 0 -50 18t-18 50v660h79v-657h45v657h79z" />
    <glyph glyph-name="V" unicode="V" 
d="M101 0l-39 48q-9 12 -15.5 21.5t-10 20t-5 24t-1.5 32.5v582h79v-632h45v632h79v-582q0 -19 -1.5 -32.5t-5.5 -24t-10 -20t-15 -21.5l-39 -48h-61z" />
    <glyph glyph-name="W" unicode="W" horiz-adv-x="386" 
d="M232 728v-657h45v657h79v-660q0 -32 -18 -50t-50 -18h-57q-11 0 -22 5.5t-16 15.5q-5 -10 -16 -15.5t-22 -5.5h-57q-32 0 -50 18t-18 50v660h79v-657h45v657h78z" />
    <glyph glyph-name="X" unicode="X" 
d="M109 329v-329h-79v309q0 7 1 16t5.5 17t13 14t23.5 8q-15 2 -23.5 8t-13 14t-5.5 16.5t-1 16.5v309h79v-327h45v327h79v-309q0 -8 -1 -16.5t-5.5 -16.5t-13 -14t-23.5 -8q15 -2 23.5 -8t13 -14t5.5 -17t1 -16v-309h-79v329h-45z" />
    <glyph glyph-name="Y" unicode="Y" horiz-adv-x="262" 
d="M91 0v225q-27 3 -45.5 21t-18.5 47v435h79v-432h50v432h79v-435q0 -29 -18.5 -47t-45.5 -21v-225h-80z" />
    <glyph glyph-name="breve" unicode="&#x2d8;" horiz-adv-x="282" 
d="M138 763q-22 0 -41.5 1.5t-34 9.5t-23 25t-8.5 47h61q-2 -23 6 -31.5t28 -8.5h30q20 0 28 8.5t6 31.5h61q0 -30 -8.5 -47t-23 -25t-34 -9.5t-41.5 -1.5h-6z" />
    <glyph glyph-name="dotaccent" unicode="&#x2d9;" horiz-adv-x="138" 
d="M19 569q0 21 14.5 37t35.5 16t35.5 -16t14.5 -37q0 -20 -14.5 -36.5t-35.5 -16.5t-35.5 16.5t-14.5 36.5z" />
    <glyph glyph-name="ring" unicode="&#x2da;" horiz-adv-x="180" 
d="M30 818q0 25 17.5 42.5t42.5 17.5t42.5 -17.5t17.5 -42.5t-17.5 -42.5t-42.5 -17.5t-42.5 17.5t-17.5 42.5zM66 817q0 -10 6.5 -16.5t16.5 -6.5t17 6.5t7 16.5t-7 17t-17 7t-16.5 -7t-6.5 -17z" />
    <glyph glyph-name="ogonek" unicode="&#x2db;" horiz-adv-x="200" 
d="M107 -103q-10 -17 -7.5 -26t23.5 -9h46v-62h-77q-21 0 -36 9t-21.5 24.5t-3.5 35.5t17 42l57 89h65z" />
    <glyph glyph-name="caron" unicode="&#x2c7;" horiz-adv-x="294" 
d="M110 768v8l-80 82h65l52 -44l52 44h65l-81 -82v-8h-73z" />
    <glyph glyph-name="dotlessi" unicode="&#x131;" horiz-adv-x="138" 
d="M30 0v506h78v-506h-78z" />
    <glyph glyph-name="fraction" unicode="&#x2044;" horiz-adv-x="250" 
d="M220 747l-147 -767h-43l147 767h43z" />
    <glyph glyph-name="Lslash" unicode="&#x141;" horiz-adv-x="231" 
d="M15 378l35 19v331h79v-287l66 37v-72l-66 -37v-298h87v-71h-166v325l-35 -19v72z" />
    <glyph glyph-name="lslash" unicode="&#x142;" horiz-adv-x="231" 
d="M15 378l35 19v331h79v-287l66 37v-72l-66 -37v-298h87v-71h-166v325l-35 -19v72z" />
    <glyph glyph-name="C" unicode="C" horiz-adv-x="258" 
d="M233 68q0 -32 -18 -50t-50 -18h-67q-32 0 -50 18t-18 50v592q0 30 18 49t50 19h67q32 0 50 -19t18 -49v-168h-79v165h-45v-586h45v165h79v-168v0z" />
    <glyph glyph-name="exclam" unicode="!" horiz-adv-x="142" 
d="M98 129h-57l-16 599h89zM18 46q0 -22 14.5 -37.5t36.5 -15.5q21 0 36 15.5t15 37.5q0 21 -15 37t-36 16q-22 0 -36.5 -16t-14.5 -37z" />
    <glyph glyph-name="quotedbl" unicode="&#x22;" horiz-adv-x="229" 
d="M33 491l-13 240h79l-13 -240h-53zM143 491l-13 240h79l-13 -240h-53z" />
    <glyph glyph-name="numbersign" unicode="#" horiz-adv-x="381" 
d="M85 251h-65l7 61h65l16 104h-65l8 61h64l34 251h68l-34 -251h49l34 251h68l-34 -251h66l-9 -61h-64l-16 -104h66l-9 -61h-64l-35 -251h-68l35 251h-49l-35 -251h-68zM160 312h49l16 104h-49z" />
    <glyph glyph-name="dollar" unicode="$" horiz-adv-x="213" 
d="M77 104h-46v65h87v130q0 7 -0.5 11t-4.5 8l-83 71q-3 3 -6.5 9t-3.5 16v155q0 25 15.5 40t41.5 15v104h51v-104h45v-65h-82v-125q0 -14 4 -17l74 -62q14 -11 16.5 -25t2.5 -36v-135q0 -26 -16.5 -40.5t-43.5 -14.5v-104h-51v104z" />
    <glyph glyph-name="percent" unicode="%" horiz-adv-x="383" 
d="M120 659q0 17 -5.5 20t-10.5 3h-11q-5 0 -11 -3t-6 -20v-116q0 -17 6 -20t11 -3h11q5 0 10.5 3t5.5 20v116zM20 659q0 42 15.5 57t50.5 15h21q35 0 52 -15t17 -57v-116q0 -42 -17 -57t-52 -15h-21q-35 0 -50.5 15t-15.5 57v116zM322 728l-208 -728h-53l209 728h52z
M307 185q0 17 -5.5 20t-10.5 3h-11q-5 0 -11 -3t-6 -20v-116q0 -17 6 -20t11 -3h11q5 0 10.5 3t5.5 20v116zM207 185q0 42 15.5 57t50.5 15h21q35 0 52 -15t17 -57v-116q0 -42 -17 -57t-52 -15h-21q-35 0 -50.5 15t-15.5 57v116z" />
    <glyph glyph-name="ampersand" unicode="&#x26;" horiz-adv-x="270" 
d="M94 0q-26 0 -45 19t-19 46v272q0 7 1 16t5.5 17t13 14t23.5 8q-15 2 -23.5 8t-13 14t-5.5 16.5t-1 16.5v216q0 27 19 46t45 19h77q26 0 45 -19t19 -46v-171h-79v165h-47v-230h96v-68h-96v-288h47v223h99v-59h-23v-170q0 -27 -19 -46t-45 -19h-74z" />
    <glyph glyph-name="quotesingle" unicode="'" horiz-adv-x="119" 
d="M33 491l-13 240h79l-13 -240h-53z" />
    <glyph glyph-name="parenleft" unicode="(" horiz-adv-x="144" 
d="M30 741q0 27 15 42t42 15h72v-44h-48v-780h48v-44h-72q-27 0 -42 15t-15 42v754z" />
    <glyph glyph-name="parenright" unicode=")" horiz-adv-x="144" 
d="M114 -13q0 -27 -15 -42t-42 -15h-72v44h48v780h-48v44h72q27 0 42 -15t15 -42v-754z" />
    <glyph glyph-name="asterisk" unicode="*" horiz-adv-x="277" 
d="M172 611l85 -36l-24 -46l-74 47l8 -90h-56l8 90l-74 -47l-25 46l84 36l-84 38l25 46l74 -47l-8 90h56l-8 -90l74 47l24 -46z" />
    <glyph glyph-name="plus" unicode="+" horiz-adv-x="340" 
d="M25 393h112v129h65v-129h113v-60h-113v-128h-65v128h-112v60z" />
    <glyph glyph-name="comma" unicode="," horiz-adv-x="119" 
d="M-3 -89l34 181h80l-54 -181h-60z" />
    <glyph glyph-name="hyphen" unicode="-" horiz-adv-x="220" 
d="M25 401h170v-72h-170v72z" />
    <glyph glyph-name="period" unicode="." horiz-adv-x="142" 
d="M122 46q0 -21 -14.5 -37t-36.5 -16t-36.5 16t-14.5 37t14.5 37t36.5 16t36.5 -16t14.5 -37z" />
    <glyph glyph-name="slash" unicode="/" horiz-adv-x="180" 
d="M160 747l-77 -767h-63l77 767h63z" />
    <glyph glyph-name="zero" unicode="0" 
d="M155 71v586h-46v-586h46zM233 68q0 -32 -18.5 -50t-49.5 -18h-67q-31 0 -49.5 18t-18.5 50v592q0 30 18.5 49t49.5 19h67q31 0 49.5 -19t18.5 -49v-592z" />
    <glyph glyph-name="one" unicode="1" horiz-adv-x="161" 
d="M52 0v657h-37v71h116v-728h-79z" />
    <glyph glyph-name="two" unicode="2" horiz-adv-x="253" 
d="M104 71h45v165h79v-236h-203v231q0 13 0.5 22t2.5 16t5 14t9 16l98 164q4 7 6.5 13.5t2.5 15.5v165h-45v-165h-79v175q0 32 18 46.5t50 14.5h67q32 0 50 -14.5t18 -46.5v-182q0 -12 -1.5 -22t-9.5 -24l-104 -174q-5 -8 -7 -14t-2 -15v-165z" />
    <glyph glyph-name="three" unicode="3" horiz-adv-x="260" 
d="M71 401h80v256h-47v-165h-79v171q0 27 19 46t45 19h77q26 0 45 -19t19 -46v-243q0 -8 -1 -16.5t-5.5 -17t-13 -14.5t-23.5 -8q15 -2 23.5 -8t13 -13.5t5.5 -16.5t1 -16v-245q0 -27 -19 -46t-45 -19h-77q-26 0 -45 19t-19 46v171h79v-165h47v258h-80v72z" />
    <glyph glyph-name="four" unicode="4" horiz-adv-x="268" 
d="M25 728h79v-458h44v458h79v-458h31v-69h-31v-201h-79v201h-123v527z" />
    <glyph glyph-name="five" unicode="5" horiz-adv-x="250" 
d="M146 347q0 10 -3 12.5t-12 2.5h-87l-16 17v349h194v-71h-115v-229h67q51 0 51 -52v-315q0 -32 -18 -46.5t-50 -14.5h-64q-32 0 -50 14.5t-18 46.5v175h79v-165h42v276z" />
    <glyph glyph-name="six" unicode="6" horiz-adv-x="266" 
d="M236 68q0 -32 -18 -50t-50 -18h-70q-32 0 -50 18t-18 50v592q0 30 18 49t50 19h70q32 0 50 -19t18 -49v-168h-79v165h-48v-229h65q62 0 62 -62v-298zM109 357v-286h48v286h-48z" />
    <glyph glyph-name="seven" unicode="7" horiz-adv-x="213" 
d="M198 728l-94 -728h-83l85 657h-91v71h183z" />
    <glyph glyph-name="eight" unicode="8" horiz-adv-x="266" 
d="M109 71h48v256h-48v-256zM30 309q0 7 1 16t5.5 17t13 14t23.5 8q-15 2 -23.5 8t-13 14t-5.5 16.5t-1 16.5v244q0 27 19 46t45 19h78q26 0 45 -19t19 -46v-244q0 -8 -1 -16.5t-5.5 -16.5t-13 -14t-23.5 -8q15 -2 23.5 -8t13 -14t5.5 -17t1 -16v-244q0 -27 -19 -46t-45 -19
h-78q-26 0 -45 19t-19 46v244zM157 401v256h-48v-256h48z" />
    <glyph glyph-name="nine" unicode="9" horiz-adv-x="266" 
d="M30 660q0 32 18 50t50 18h70q32 0 50 -18t18 -50v-592q0 -30 -18 -49t-50 -19h-70q-32 0 -50 19t-18 49v168h79v-165h48v229h-65q-62 0 -62 62v298zM157 371v286h-48v-286h48z" />
    <glyph glyph-name="colon" unicode=":" horiz-adv-x="142" 
d="M20 322q0 21 14.5 37t36.5 16q21 0 36 -16t15 -37q0 -22 -15 -37.5t-36 -15.5q-22 0 -36.5 15.5t-14.5 37.5zM20 46q0 21 14.5 37t36.5 16q21 0 36 -16t15 -37q0 -22 -15 -37.5t-36 -15.5q-22 0 -36.5 15.5t-14.5 37.5z" />
    <glyph glyph-name="semicolon" unicode=";" horiz-adv-x="142" 
d="M-2 -89l34 181h80l-54 -181h-60zM20 322q0 21 14.5 37t36.5 16q21 0 36 -16t15 -37q0 -22 -15 -37.5t-36 -15.5q-22 0 -36.5 15.5t-14.5 37.5z" />
    <glyph glyph-name="less" unicode="&#x3c;" horiz-adv-x="230" 
d="M20 399l180 168v-91l-122 -112l122 -112v-91l-180 168v70z" />
    <glyph glyph-name="equal" unicode="=" horiz-adv-x="283" 
d="M30 337h223v-61h-223v61zM30 453h223v-60h-223v60z" />
    <glyph glyph-name="greater" unicode="&#x3e;" horiz-adv-x="230" 
d="M210 329l-180 -168v91l122 112l-122 112v91l180 -168v-70z" />
    <glyph glyph-name="question" unicode="?" horiz-adv-x="253" 
d="M153 129h-77v169q0 26 4 40t13 32l52 98q3 6 3.5 10t0.5 13v166h-45v-165h-79v175q0 32 18 46.5t50 14.5h67q32 0 50 -14.5t18 -46.5v-177q0 -25 -11 -48l-56 -111q-6 -11 -7 -18t-1 -16v-168zM63 46q0 -22 14.5 -37.5t36.5 -15.5q21 0 36 15.5t15 37.5q0 21 -15 37
t-36 16q-22 0 -36.5 -16t-14.5 -37z" />
    <glyph glyph-name="at" unicode="@" horiz-adv-x="368" 
d="M221 500v-300h44v300h-44zM277 71v-71h-182q-27 0 -46 19t-19 45v600q0 26 19 45t46 19h178q27 0 46 -19t19 -45v-551h-129q-33 0 -47 14.5t-14 48.5v331q0 65 65 65h52v54q0 20 -4.5 25.5t-23.5 5.5h-103q-19 0 -25 -5.5t-6 -25.5v-524q0 -20 6 -25.5t25 -5.5h143z" />
    <glyph glyph-name="underscore" unicode="_" horiz-adv-x="186" 
d="M10 -10h166v-58h-166v58z" />
    <glyph glyph-name="asciicircum" unicode="^" horiz-adv-x="331" 
d="M166 647l-67 -180h-79l106 261h79l106 -261h-79z" />
    <glyph glyph-name="bracketright" unicode="]" horiz-adv-x="144" 
d="M114 -70h-129v44h48v780h-48v44h129v-868z" />
    <glyph glyph-name="backslash" unicode="\" horiz-adv-x="180" 
d="M83 747l77 -767h-63l-77 767h63z" />
    <glyph glyph-name="bracketleft" unicode="[" horiz-adv-x="144" 
d="M30 798h129v-44h-48v-780h48v-44h-129v868z" />
    <glyph glyph-name="grave" unicode="`" horiz-adv-x="217" 
d="M119 858v-14l68 -76h-63l-94 79v11h89z" />
    <glyph glyph-name="bar" unicode="|" horiz-adv-x="189" 
d="M129 -224h-69v1037h69v-1037z" />
    <glyph glyph-name="asciitilde" unicode="~" horiz-adv-x="286" 
d="M261 305q-15 -8 -27.5 -11.5t-23.5 -3.5q-20 0 -38 8.5t-34 18t-31 17.5t-29 7v-43h-53v99q15 8 27.5 11t23.5 3q20 0 38 -8t34 -17t31 -16.5t29 -7.5v44h53v-101z" />
    <glyph glyph-name="dagger" unicode="&#x2020;" horiz-adv-x="416" 
d="M40 454h135v290h66v-290h135v-55h-135v-593h-66v593h-135v55z" />
    <glyph glyph-name="daggerdbl" unicode="&#x2021;" horiz-adv-x="416" 
d="M40 460h135v284h66v-284h135v-56h-135v-258h135v-56h-135v-284h-66v284h-135v56h135v258h-135v56z" />
    <glyph glyph-name="circumflex" unicode="&#x2c6;" horiz-adv-x="294" 
d="M183 858v-8l81 -82h-65l-52 44l-52 -44h-65l80 82v8h73z" />
    <glyph glyph-name="perthousand" unicode="&#x2030;" horiz-adv-x="579" 
d="M503 185q0 17 -5.5 20t-10.5 3h-11q-5 0 -11 -3t-6 -20v-116q0 -17 6 -20t11 -3h11q5 0 10.5 3t5.5 20v116zM403 185q0 42 15.5 57t50.5 15h21q35 0 52 -15t17 -57v-116q0 -42 -17 -57t-52 -15h-21q-35 0 -50.5 15t-15.5 57v116zM120 659q0 17 -5.5 20t-10.5 3h-11
q-5 0 -11 -3t-6 -20v-116q0 -17 6 -20t11 -3h11q5 0 10.5 3t5.5 20v116zM20 659q0 42 15.5 57t50.5 15h21q35 0 52 -15t17 -57v-116q0 -42 -17 -57t-52 -15h-21q-35 0 -50.5 15t-15.5 57v116zM320 728l-206 -728h-53l209 728h50zM307 185q0 17 -5.5 20t-10.5 3h-11
q-5 0 -11 -3t-6 -20v-116q0 -17 6 -20t11 -3h11q5 0 10.5 3t5.5 20v116zM207 185q0 42 15.5 57t50.5 15h21q35 0 52 -15t17 -57v-116q0 -42 -17 -57t-52 -15h-21q-35 0 -50.5 15t-15.5 57v116z" />
    <glyph glyph-name="guilsinglleft" unicode="&#x2039;" horiz-adv-x="192" 
d="M10 225l96 225h76l-96 -225l96 -225h-76z" />
    <glyph glyph-name="OE" unicode="&#x152;" horiz-adv-x="336" 
d="M98 0q-31 0 -49.5 18t-18.5 50v592q0 30 18.5 49t49.5 19h223v-71h-87v-256h73v-72h-73v-258h87v-71h-223zM155 71v586h-46v-586h46z" />
    <glyph glyph-name="quoteleft" unicode="&#x2bb;" horiz-adv-x="131" 
d="M116 731l-27 -240h-74l45 240h56z" />
    <glyph glyph-name="quoteleft" unicode="&#x2018;" horiz-adv-x="131" 
d="M116 731l-27 -240h-74l45 240h56z" />
    <glyph glyph-name="quoteright" unicode="&#x2bc;" horiz-adv-x="126" 
d="M15 491l21 240h75l-38 -240h-58z" />
    <glyph glyph-name="quoteright" unicode="&#x2019;" horiz-adv-x="126" 
d="M15 491l21 240h75l-38 -240h-58z" />
    <glyph glyph-name="quotedblleft" unicode="&#x201c;" horiz-adv-x="228" 
d="M208 731l-18 -240h-74l37 240h55zM116 731l-27 -240h-74l45 240h56z" />
    <glyph glyph-name="quotedblright" unicode="&#x201d;" horiz-adv-x="226" 
d="M15 491l21 240h75l-38 -240h-58zM111 491l27 240h73l-45 -240h-55z" />
    <glyph glyph-name="bullet" unicode="&#x2022;" horiz-adv-x="218" 
d="M30 364q0 33 23 56t56 23t56 -23t23 -56t-23 -56t-56 -23t-56 23t-23 56z" />
    <glyph glyph-name="endash" unicode="&#x2013;" horiz-adv-x="280" 
d="M25 386h230v-72h-230v72z" />
    <glyph glyph-name="emdash" unicode="&#x2014;" horiz-adv-x="420" 
d="M25 386h370v-72h-370v72z" />
    <glyph glyph-name="tilde" unicode="&#x2dc;" horiz-adv-x="273" 
d="M243 773q-23 -11 -43 -11q-17 0 -34 6.5t-33.5 14t-31 13.5t-26.5 5v-33h-45v70q13 6 23.5 8t19.5 2q17 0 34 -6t33.5 -13t31 -12.5t26.5 -5.5v33h45v-71z" />
    <glyph glyph-name="trademark" unicode="&#x2122;" horiz-adv-x="661" 
d="M259 678h-84v-316h-60v316h-85v49h229v-49zM443 370l-86 252v-260h-60v365h81l87 -254l85 254h81v-365h-59v260l-86 -252h-43z" />
    <glyph glyph-name="guilsinglright" unicode="&#x203a;" horiz-adv-x="192" 
d="M86 0h-76l96 225l-96 225h76l96 -225z" />
    <glyph glyph-name="uni00A0" unicode="&#xa0;" horiz-adv-x="50" 
 />
    <glyph glyph-name="cent" unicode="&#xa2;" horiz-adv-x="214" 
d="M30 501q0 30 18 49t50 19h5v158h42v-158h49v-71h-94v-269h94v-71h-49v-158h-42v158h-5q-32 0 -50 19t-18 49v275z" />
    <glyph glyph-name="sterling" unicode="&#xa3;" horiz-adv-x="273" 
d="M20 400h20v260q0 30 18 49t50 19h67q32 0 50 -19t18 -49v-168h-79v165h-45v-257h104v-72h-104v-257h117v-71h-216v71h20v257h-20v72z" />
    <glyph glyph-name="currency" unicode="&#xa4;" horiz-adv-x="351" 
d="M284 523v-345l47 -42l-41 -42l-49 44h-132l-49 -43l-39 41l48 44v341l-49 44l40 41l50 -45h131l49 45l40 -41zM187 205q12 0 20 6t8 22v238q0 16 -8 22t-20 6h-23q-12 0 -20 -6t-8 -22v-238q0 -16 8 -22t20 -6h23z" />
    <glyph glyph-name="brokenbar" unicode="&#xa6;" horiz-adv-x="189" 
d="M129 -224h-69v457h69v-457zM129 356h-69v457h69v-457z" />
    <glyph glyph-name="section" unicode="&#xa7;" horiz-adv-x="225" 
d="M132 44q0 8 -1 13.5t-5 10.5l-88 108q-6 6 -9.5 15t-3.5 26v181q0 28 15.5 40.5t43.5 12.5h26l-72 88q-8 11 -10.5 20t-2.5 23v93q0 29 15.5 41t43.5 12h57q29 0 44 -12t15 -41v-91h-68v82h-38v-84q0 -8 1 -13.5t6 -10.5l86 -106q10 -13 11.5 -24t1.5 -35v-164
q0 -52 -59 -52h-22l68 -83q10 -13 11.5 -24.5t1.5 -34.5v-83q0 -28 -15 -40t-44 -12h-57q-28 0 -43.5 12t-15.5 40v91h69v-82h38v83zM132 389h-38v-151h38v151z" />
    <glyph glyph-name="dieresis" unicode="&#xa8;" horiz-adv-x="297" 
d="M30 812q0 22 14.5 37t36.5 15t37 -15t15 -37t-15 -36.5t-37 -14.5t-36.5 14.5t-14.5 36.5zM164 812q0 22 14.5 37t36.5 15t37 -15t15 -37t-15 -36.5t-37 -14.5t-36.5 14.5t-14.5 36.5z" />
    <glyph glyph-name="copyright" unicode="&#xa9;" horiz-adv-x="818" 
d="M410 727q74 0 141 -27.5t117.5 -76.5t80 -116.5t29.5 -146.5q0 -81 -29.5 -148.5t-80 -117t-117.5 -77t-141 -27.5q-75 0 -142 27.5t-118 77t-80.5 117t-29.5 148.5q0 79 29.5 146.5t80.5 116.5t118 76.5t142 27.5zM410 665q-63 0 -117 -23t-93.5 -64t-62.5 -97t-23 -121
q0 -67 23 -123t62.5 -97t93.5 -64t117 -23q62 0 115.5 23t93.5 64t62.5 97t22.5 123q0 65 -22.5 121t-62.5 97t-93.5 64t-115.5 23zM602 291q-7 -36 -23.5 -65.5t-40 -49.5t-53 -31t-63.5 -11q-49 0 -89 17.5t-68 48t-43.5 72t-15.5 89.5t14.5 89t42.5 71t67 47t89 17
q70 0 120.5 -39t61.5 -114h-65q-8 41 -39.5 65.5t-76.5 24.5q-34 0 -60 -12.5t-44 -34t-27 -50.5t-9 -63q0 -33 10 -62.5t28.5 -52.5t44.5 -36.5t59 -13.5q46 0 77 26t37 68h66z" />
    <glyph glyph-name="ordfeminine" unicode="&#xaa;" horiz-adv-x="199" 
d="M81 428h31v155h-31v-155zM37 728h83q23 0 36 -13t13 -35v-303h-49h-47q-22 0 -35 12.5t-13 35.5v158q0 21 13 33.5t35 12.5h39v49h-75v50z" />
    <glyph glyph-name="guillemotleft" unicode="&#xab;" horiz-adv-x="313" 
d="M10 225l96 225h76l-96 -225l96 -225h-76zM227 450h76l-96 -225l96 -225h-76l-96 225z" />
    <glyph glyph-name="logicalnot" unicode="&#xac;" horiz-adv-x="300" 
d="M25 393h245v-145h-60v85h-185v60z" />
    <glyph glyph-name="uni00AD" unicode="&#xad;" horiz-adv-x="270" 
d="M25 393h220v-60h-220v60z" />
    <glyph glyph-name="registered" unicode="&#xae;" horiz-adv-x="828" 
d="M416 737q75 0 142.5 -28t118.5 -77.5t81 -117.5t30 -148q0 -82 -30 -151t-81 -119t-118.5 -78t-142.5 -28q-76 0 -144.5 28t-120 78t-81.5 119t-30 151q0 80 30 148t81.5 117.5t120 77.5t144.5 28zM416 674q-64 0 -119 -23.5t-95.5 -64.5t-63.5 -97.5t-23 -122.5
q0 -68 23 -125.5t63.5 -99t95.5 -64.5t119 -23q63 0 117 23t94 64.5t63 99t23 125.5q0 66 -23 122.5t-63 97.5t-94 64.5t-117 23.5zM335 149h-63v431h163q75 0 112 -29.5t37 -92.5q-2 -58 -32 -86t-77 -34l121 -189h-72l-115 187h-74v-187zM415 389q20 0 39 2t33.5 9
t23.5 21.5t9 40.5q0 21 -8.5 34t-22 20.5t-30.5 10t-33 2.5h-91v-140h80z" />
    <glyph glyph-name="macron" unicode="&#xaf;" horiz-adv-x="246" 
d="M20 823h206v-55h-206v55z" />
    <glyph glyph-name="degree" unicode="&#xb0;" horiz-adv-x="194" 
d="M20 661q0 32 22.5 54.5t54.5 22.5t54.5 -22.5t22.5 -54.5t-22.5 -54.5t-54.5 -22.5t-54.5 22.5t-22.5 54.5zM66 660q0 -13 8.5 -21.5t21.5 -8.5t21.5 8.5t8.5 21.5t-8.5 21.5t-21.5 8.5t-21.5 -8.5t-8.5 -21.5z" />
    <glyph glyph-name="plusminus" unicode="&#xb1;" horiz-adv-x="340" 
d="M25 393h112v129h65v-129h113v-60h-113v-128h-65v128h-112v60zM25 173h290v-60h-290v60z" />
    <glyph glyph-name="twosuperior" unicode="&#xb2;" horiz-adv-x="207" 
d="M87 253h33v120h57v-171h-147v167q0 19 2 27t10 22l71 119q7 10 7 20v120h-33v-120h-57v127q0 23 13 33.5t36 10.5h49q23 0 36 -10.5t13 -33.5v-132q0 -8 -1 -15.5t-7 -17.5l-75 -126q-7 -10 -7 -20v-120z" />
    <glyph glyph-name="threesuperior" unicode="&#xb3;" horiz-adv-x="208" 
d="M63 492h58v185h-34v-120h-57v124q0 20 13.5 33.5t32.5 13.5h56q19 0 32.5 -13.5t13.5 -33.5v-176q0 -11 -5 -24t-26 -16q21 -3 26 -16t5 -24v-176q0 -20 -13.5 -33.5t-32.5 -13.5h-56q-19 0 -32.5 13.5t-13.5 33.5v124h57v-120h34v185h-58v54z" />
    <glyph glyph-name="acute" unicode="&#xb4;" horiz-adv-x="217" 
d="M187 858v-11l-94 -79h-63l68 76v14h89z" />
    <glyph glyph-name="mu" unicode="&#xb5;" horiz-adv-x="259" 
d="M151 28q0 -13 -9 -20.5t-21 -7.5h-13v-200h-78v706h78v-437h43v437h78v-506h-78v28z" />
    <glyph glyph-name="mu" unicode="&#x3bc;" horiz-adv-x="259" 
d="M151 28q0 -13 -9 -20.5t-21 -7.5h-13v-200h-78v706h78v-437h43v437h78v-506h-78v28z" />
    <glyph glyph-name="paragraph" unicode="&#xb6;" horiz-adv-x="323" 
d="M88 348q-27 0 -45 17.5t-18 43.5v254q0 27 19.5 46t46.5 19h207v-828h-59v785h-39v-785h-59v448h-53z" />
    <glyph glyph-name="periodcentered" unicode="&#xb7;" horiz-adv-x="142" 
d="M122 364q0 -21 -14.5 -37t-36.5 -16t-36.5 16t-14.5 37t14.5 37t36.5 16t36.5 -16t14.5 -37z" />
    <glyph glyph-name="cedilla" unicode="&#xb8;" horiz-adv-x="222" 
d="M124 0l-17 -25q6 2 13 3t12 1q26 0 43 -15t17 -42q0 -36 -25 -53t-57 -18q-20 -1 -41.5 5.5t-38.5 18.5l15 38q8 -7 22 -12.5t27 -5.5q12 0 22 7t10 21q0 8 -6.5 15.5t-17.5 7.5q-7 0 -13.5 -1t-14.5 -6l-27 17l31 44h46z" />
    <glyph glyph-name="onesuperior" unicode="&#xb9;" horiz-adv-x="144" 
d="M57 202v475h-27v51h84v-526h-57z" />
    <glyph glyph-name="ordmasculine" unicode="&#xba;" horiz-adv-x="204" 
d="M174 425q0 -23 -13.5 -35.5t-35.5 -12.5h-46q-23 0 -36 12.5t-13 35.5v255q0 22 13 35t36 13h46q22 0 35.5 -13t13.5 -35v-255zM87 428h30v250h-30v-250z" />
    <glyph glyph-name="guillemotright" unicode="&#xbb;" horiz-adv-x="313" 
d="M207 0h-76l96 225l-96 225h76l96 -225zM182 225l-96 -225h-76l96 225l-96 225h76z" />
    <glyph glyph-name="onequarter" unicode="&#xbc;" horiz-adv-x="478" 
d="M57 202v475h-27v51h84v-526h-57zM280 526h57v-331h31v331h58v-331h22v-50h-22v-145h-58v145h-88v381zM292 747l-147 -767h-43l147 767h43z" />
    <glyph glyph-name="onehalf" unicode="&#xbd;" horiz-adv-x="454" 
d="M334 51h33v120h57v-171h-147v167q0 19 2 27t10 22l71 119q7 10 7 20v120h-33v-120h-57v127q0 23 13 33.5t36 10.5h49q23 0 36 -10.5t13 -33.5v-132q0 -8 -1 -15.5t-7 -17.5l-75 -126q-7 -10 -7 -20v-120zM57 202v475h-27v51h84v-526h-57zM292 747l-147 -767h-43l147 767
h43z" />
    <glyph glyph-name="threequarters" unicode="&#xbe;" horiz-adv-x="539" 
d="M63 492h58v185h-34v-120h-57v124q0 20 13.5 33.5t32.5 13.5h56q19 0 32.5 -13.5t13.5 -33.5v-176q0 -11 -5 -24t-26 -16q21 -3 26 -16t5 -24v-176q0 -20 -13.5 -33.5t-32.5 -13.5h-56q-19 0 -32.5 13.5t-13.5 33.5v124h57v-120h34v185h-58v54zM341 526h57v-331h31v331h58
v-331h22v-50h-22v-145h-58v145h-88v381zM353 747l-147 -767h-43l147 767h43z" />
    <glyph glyph-name="Agrave" unicode="&#xc0;" horiz-adv-x="265" 
d="M30 663q0 27 19 46t46 19h75q27 0 46 -19t19 -46v-663h-79v329h-47v-329h-79v663zM156 657h-47v-256h47v256zM105 858v-14l68 -76h-63l-94 79v11h89z" />
    <glyph glyph-name="Aacute" unicode="&#xc1;" horiz-adv-x="265" 
d="M30 663q0 27 19 46t46 19h75q27 0 46 -19t19 -46v-663h-79v329h-47v-329h-79v663zM156 657h-47v-256h47v256zM261 858v-11l-94 -79h-63l68 76v14h89z" />
    <glyph glyph-name="Acircumflex" unicode="&#xc2;" horiz-adv-x="265" 
d="M30 663q0 27 19 46t46 19h75q27 0 46 -19t19 -46v-663h-79v329h-47v-329h-79v663zM156 657h-47v-256h47v256zM169 858v-8l81 -82h-65l-52 44l-52 -44h-65l80 82v8h73z" />
    <glyph glyph-name="Atilde" unicode="&#xc3;" horiz-adv-x="265" 
d="M240 773q-23 -11 -43 -11q-17 0 -34 6.5t-33.5 14t-31 13.5t-26.5 5v-33h-45v70q13 6 23.5 8t19.5 2q17 0 34 -6t33.5 -13t31 -12.5t26.5 -5.5v33h45v-71zM30 663q0 27 19 46t46 19h75q27 0 46 -19t19 -46v-663h-79v329h-47v-329h-79v663zM156 657h-47v-256h47v256z" />
    <glyph glyph-name="Adieresis" unicode="&#xc4;" horiz-adv-x="265" 
d="M30 663q0 27 19 46t46 19h75q27 0 46 -19t19 -46v-663h-79v329h-47v-329h-79v663zM156 657h-47v-256h47v256zM15 812q0 22 14.5 37t36.5 15t37 -15t15 -37t-15 -36.5t-37 -14.5t-36.5 14.5t-14.5 36.5zM149 812q0 22 14.5 37t36.5 15t37 -15t15 -37t-15 -36.5t-37 -14.5
t-36.5 14.5t-14.5 36.5z" />
    <glyph glyph-name="AE" unicode="&#xc6;" horiz-adv-x="343" 
d="M30 663q0 27 19 46t46 19h227v-71h-87v-256h73v-72h-73v-258h87v-71h-166v329h-47v-329h-79v663zM156 657h-47v-256h47v256z" />
    <glyph glyph-name="Thorn" unicode="&#xde;" horiz-adv-x="260" 
d="M109 164v-164h-79v728h79v-164h60q27 0 46.5 -19t19.5 -46v-270q0 -27 -19.5 -46t-46.5 -19h-60zM156 235v258h-47v-258h47z" />
    <glyph glyph-name="germandbls" unicode="&#xdf;" horiz-adv-x="368" 
d="M108 0h-78v661q0 31 18 49t48 18h116q29 0 50.5 -17t21.5 -49v-161l-33 -25q-15 -11 -19 -23.5t-4 -29.5v-41q0 -14 1.5 -21.5t8.5 -15.5l94 -106q11 -12 13.5 -26t2.5 -28v-119q0 -31 -18.5 -48.5t-48.5 -17.5h-64q-30 0 -48.5 17.5t-18.5 48.5v99h77v-95h43v108
q0 11 -2 17t-8 13l-96 102q-8 8 -11 19.5t-3 28.5v79q0 36 5.5 54t27.5 33l24 17v116h-99v-657z" />
    <glyph glyph-name="ae" unicode="&#xe6;" horiz-adv-x="343" 
d="M30 663q0 27 19 46t46 19h227v-71h-87v-256h73v-72h-73v-258h87v-71h-166v329h-47v-329h-79v663zM156 657h-47v-256h47v256z" />
    <glyph glyph-name="eth" unicode="&#xf0;" horiz-adv-x="265" 
d="M10 401h20v327h141q26 0 45 -19t19 -46v-599q0 -26 -19 -45t-45 -19h-141v329h-20v72zM156 657h-47v-256h20v-72h-20v-258h47v586z" />
    <glyph glyph-name="divide" unicode="&#xf7;" horiz-adv-x="296" 
d="M25 393h246v-60h-246v60zM97 481q0 21 14.5 37t36.5 16q21 0 36 -16t15 -37q0 -22 -15 -37.5t-36 -15.5q-22 0 -36.5 15.5t-14.5 37.5zM97 245q0 21 14.5 37t36.5 16q21 0 36 -16t15 -37q0 -22 -15 -37.5t-36 -15.5q-22 0 -36.5 15.5t-14.5 37.5z" />
    <glyph glyph-name="oslash" unicode="&#xf8;" 
d="M98 0q-16 0 -32 7l-11 -32l-24 8l13 39q-14 17 -14 46v592q0 30 18.5 49t49.5 19h67q16 0 32 -7l11 32l24 -8l-13 -39q14 -17 14 -46v-592q0 -32 -18.5 -50t-49.5 -18h-67zM155 71v353l-46 -255v-98h46zM109 304l46 257v96h-46v-353z" />
    <glyph glyph-name="thorn" unicode="&#xfe;" horiz-adv-x="260" 
d="M109 164v-164h-79v728h79v-164h60q27 0 46.5 -19t19.5 -46v-270q0 -27 -19.5 -46t-46.5 -19h-60zM156 235v258h-47v-258h47z" />
    <glyph glyph-name="Ccedilla" unicode="&#xc7;" horiz-adv-x="258" 
d="M233 68q0 -32 -18 -50t-50 -18h-7l-17 -25q6 2 13 3t12 1q26 0 43 -15t17 -42q0 -36 -25 -53t-57 -18q-20 -1 -41.5 5.5t-38.5 18.5l15 38q8 -7 22 -12.5t27 -5.5q12 0 22 7t10 21q0 8 -6.5 15.5t-17.5 7.5q-7 0 -13.5 -1t-14.5 -6l-27 17l31 44h-14q-32 0 -50 18t-18 50
v592q0 30 18 49t50 19h67q32 0 50 -19t18 -49v-168h-79v165h-45v-586h45v165h79v-168v0z" />
    <glyph glyph-name="multiply" unicode="&#xd7;" horiz-adv-x="342" 
d="M171 319l-100 -100l-46 43l101 102l-101 103l46 44l100 -102l100 102l46 -44l-101 -103l101 -102l-46 -43z" />
    <glyph glyph-name="Z" unicode="Z" horiz-adv-x="217" 
d="M198 728l-85 -657h89v-71h-181l85 657h-91v71h183z" />
    <glyph glyph-name="Oslash" unicode="&#xd8;" 
d="M98 0q-16 0 -32 7l-11 -32l-24 8l13 39q-14 17 -14 46v592q0 30 18.5 49t49.5 19h67q16 0 32 -7l11 32l24 -8l-13 -39q14 -17 14 -46v-592q0 -32 -18.5 -50t-49.5 -18h-67zM155 71v353l-46 -255v-98h46zM109 304l46 257v96h-46v-353z" />
    <glyph glyph-name="Aring" unicode="&#xc5;" horiz-adv-x="265" 
d="M30 663q0 27 19 46t46 19h75q27 0 46 -19t19 -46v-663h-79v329h-47v-329h-79v663zM156 657h-47v-256h47v256zM73 818q0 25 17.5 42.5t42.5 17.5t42.5 -17.5t17.5 -42.5t-17.5 -42.5t-42.5 -17.5t-42.5 17.5t-17.5 42.5zM109 817q0 -10 6.5 -16.5t16.5 -6.5t17 6.5t7 16.5
t-7 17t-17 7t-16.5 -7t-6.5 -17z" />
    <glyph glyph-name="Egrave" unicode="&#xc8;" horiz-adv-x="211" 
d="M30 0v728h166v-71h-87v-256h73v-72h-73v-258h87v-71h-166zM85 858v-14l68 -76h-63l-94 79v11h89z" />
    <glyph glyph-name="Eacute" unicode="&#xc9;" horiz-adv-x="211" 
d="M30 0v728h166v-71h-87v-256h73v-72h-73v-258h87v-71h-166zM216 858v-11l-94 -79h-63l68 76v14h89z" />
    <glyph glyph-name="Ecircumflex" unicode="&#xca;" horiz-adv-x="211" 
d="M30 0v728h166v-71h-87v-256h73v-72h-73v-258h87v-71h-166zM143 858v-8l81 -82h-65l-52 44l-52 -44h-65l80 82v8h73z" />
    <glyph glyph-name="Edieresis" unicode="&#xcb;" horiz-adv-x="211" 
d="M30 0v728h166v-71h-87v-256h73v-72h-73v-258h87v-71h-166zM-4 812q0 22 14.5 37t36.5 15t37 -15t15 -37t-15 -36.5t-37 -14.5t-36.5 14.5t-14.5 36.5zM130 812q0 22 14.5 37t36.5 15t37 -15t15 -37t-15 -36.5t-37 -14.5t-36.5 14.5t-14.5 36.5z" />
    <glyph glyph-name="Igrave" unicode="&#xcc;" horiz-adv-x="145" 
d="M33 728h80v-728h-80v728zM37 858v-14l68 -76h-63l-94 79v11h89z" />
    <glyph glyph-name="Iacute" unicode="&#xcd;" horiz-adv-x="145" 
d="M33 728h80v-728h-80v728zM197 858v-11l-94 -79h-63l68 76v14h89z" />
    <glyph glyph-name="Icircumflex" unicode="&#xce;" horiz-adv-x="145" 
d="M33 728h80v-728h-80v728zM110 858v-8l81 -82h-65l-52 44l-52 -44h-65l80 82v8h73z" />
    <glyph glyph-name="Idieresis" unicode="&#xcf;" horiz-adv-x="145" 
d="M33 728h80v-728h-80v728zM-45 812q0 22 14.5 37t36.5 15t37 -15t15 -37t-15 -36.5t-37 -14.5t-36.5 14.5t-14.5 36.5zM89 812q0 22 14.5 37t36.5 15t37 -15t15 -37t-15 -36.5t-37 -14.5t-36.5 14.5t-14.5 36.5z" />
    <glyph glyph-name="Ntilde" unicode="&#xd1;" horiz-adv-x="282" 
d="M100 728l74 -366v366h78v-728h-70l-74 376v-376h-78v728h70zM247 773q-23 -11 -43 -11q-17 0 -34 6.5t-33.5 14t-31 13.5t-26.5 5v-33h-45v70q13 6 23.5 8t19.5 2q17 0 34 -6t33.5 -13t31 -12.5t26.5 -5.5v33h45v-71z" />
    <glyph glyph-name="Ograve" unicode="&#xd2;" 
d="M155 71v586h-46v-586h46zM233 68q0 -32 -18.5 -50t-49.5 -18h-67q-31 0 -49.5 18t-18.5 50v592q0 30 18.5 49t49.5 19h67q31 0 49.5 -19t18.5 -49v-592zM95 858v-14l68 -76h-63l-94 79v11h89z" />
    <glyph glyph-name="Oacute" unicode="&#xd3;" 
d="M155 71v586h-46v-586h46zM233 68q0 -32 -18.5 -50t-49.5 -18h-67q-31 0 -49.5 18t-18.5 50v592q0 30 18.5 49t49.5 19h67q31 0 49.5 -19t18.5 -49v-592zM258 858v-11l-94 -79h-63l68 76v14h89z" />
    <glyph glyph-name="Ocircumflex" unicode="&#xd4;" 
d="M155 71v586h-46v-586h46zM233 68q0 -32 -18.5 -50t-49.5 -18h-67q-31 0 -49.5 18t-18.5 50v592q0 30 18.5 49t49.5 19h67q31 0 49.5 -19t18.5 -49v-592zM169 858v-8l81 -82h-65l-52 44l-52 -44h-65l80 82v8h73z" />
    <glyph glyph-name="Otilde" unicode="&#xd5;" 
d="M155 71v586h-46v-586h46zM233 68q0 -32 -18.5 -50t-49.5 -18h-67q-31 0 -49.5 18t-18.5 50v592q0 30 18.5 49t49.5 19h67q31 0 49.5 -19t18.5 -49v-592zM239 773q-23 -11 -43 -11q-17 0 -34 6.5t-33.5 14t-31 13.5t-26.5 5v-33h-45v70q13 6 23.5 8t19.5 2q17 0 34 -6
t33.5 -13t31 -12.5t26.5 -5.5v33h45v-71z" />
    <glyph glyph-name="Odieresis" unicode="&#xd6;" 
d="M155 71v586h-46v-586h46zM233 68q0 -32 -18.5 -50t-49.5 -18h-67q-31 0 -49.5 18t-18.5 50v592q0 30 18.5 49t49.5 19h67q31 0 49.5 -19t18.5 -49v-592zM14 812q0 22 14.5 37t36.5 15t37 -15t15 -37t-15 -36.5t-37 -14.5t-36.5 14.5t-14.5 36.5zM148 812q0 22 14.5 37
t36.5 15t37 -15t15 -37t-15 -36.5t-37 -14.5t-36.5 14.5t-14.5 36.5z" />
    <glyph glyph-name="Ugrave" unicode="&#xd9;" 
d="M233 728v-660q0 -32 -18.5 -50t-49.5 -18h-67q-32 0 -50 18t-18 50v660h79v-657h45v657h79zM98 858v-14l68 -76h-63l-94 79v11h89z" />
    <glyph glyph-name="Yacute" unicode="&#xdd;" horiz-adv-x="258" 
d="M91 0v225q-27 3 -45.5 21t-18.5 47v435h79v-432h50v432h79v-435q0 -29 -18.5 -47t-45.5 -21v-225h-80zM250 858v-11l-94 -79h-63l68 76v14h89z" />
    <glyph glyph-name="Udieresis" unicode="&#xdc;" 
d="M233 728v-660q0 -32 -18.5 -50t-49.5 -18h-67q-32 0 -50 18t-18 50v660h79v-657h45v657h79zM14 812q0 22 14.5 37t36.5 15t37 -15t15 -37t-15 -36.5t-37 -14.5t-36.5 14.5t-14.5 36.5zM148 812q0 22 14.5 37t36.5 15t37 -15t15 -37t-15 -36.5t-37 -14.5t-36.5 14.5
t-14.5 36.5z" />
    <glyph glyph-name="Ucircumflex" unicode="&#xdb;" 
d="M233 728v-660q0 -32 -18.5 -50t-49.5 -18h-67q-32 0 -50 18t-18 50v660h79v-657h45v657h79zM169 858v-8l81 -82h-65l-52 44l-52 -44h-65l80 82v8h73z" />
    <glyph glyph-name="Uacute" unicode="&#xda;" 
d="M233 728v-660q0 -32 -18.5 -50t-49.5 -18h-67q-32 0 -50 18t-18 50v660h79v-657h45v657h79zM255 858v-11l-94 -79h-63l68 76v14h89z" />
    <glyph glyph-name="Ydieresis" unicode="&#x178;" horiz-adv-x="258" 
d="M91 0v225q-27 3 -45.5 21t-18.5 47v435h79v-432h50v432h79v-435q0 -29 -18.5 -47t-45.5 -21v-225h-80zM12 812q0 22 14.5 37t36.5 15t37 -15t15 -37t-15 -36.5t-37 -14.5t-36.5 14.5t-14.5 36.5zM146 812q0 22 14.5 37t36.5 15t37 -15t15 -37t-15 -36.5t-37 -14.5
t-36.5 14.5t-14.5 36.5z" />
    <glyph glyph-name="Zcaron" horiz-adv-x="217" 
d="M198 728l-85 -657h89v-71h-181l85 657h-91v71h183zM73 768v8l-80 82h65l52 -44l52 44h65l-81 -82v-8h-73z" />
    <glyph glyph-name="Zcaron" unicode="&#x17d;" horiz-adv-x="217" 
d="M198 728l-85 -657h89v-71h-181l85 657h-91v71h183zM73 768v8l-80 82h65l52 -44l52 44h65l-81 -82v-8h-73z" />
    <glyph glyph-name="Scaron" unicode="&#x160;" horiz-adv-x="253" 
d="M149 236q0 9 -2 15t-7 14l-104 174q-8 14 -9.5 24t-1.5 22v182q0 32 18 46.5t50 14.5h67q32 0 50 -14.5t18 -46.5v-175h-79v165h-45v-165q0 -9 2.5 -15.5t6.5 -13.5l98 -164q6 -9 9 -16t5 -14t2.5 -16t0.5 -22v-170q0 -32 -18 -46.5t-50 -14.5h-67q-32 0 -50 14.5
t-18 46.5v175h79v-165h45v165zM91 768v8l-80 82h65l52 -44l52 44h65l-81 -82v-8h-73z" />
    <glyph glyph-name="exclamdown" unicode="&#xa1;" horiz-adv-x="137" 
d="M100 380h-57l-16 -580h89zM20 463q0 22 14.5 37.5t36.5 15.5q21 0 36 -15.5t15 -37.5q0 -21 -15 -37t-36 -16q-22 0 -36.5 16t-14.5 37z" />
    <glyph glyph-name="questiondown" unicode="&#xbf;" horiz-adv-x="233" 
d="M100 380h77v-153q0 -26 -4 -40t-13 -32l-52 -98q-3 -6 -3.5 -10t-0.5 -13v-163h45v145h79v-155q0 -32 -18 -46.5t-50 -14.5h-67q-32 0 -50 14.5t-18 46.5v174q0 25 11 48l56 111q6 11 7 18t1 16v152zM190 463q0 -21 -14.5 -37t-36.5 -16q-21 0 -36 16t-15 37
q0 22 15 37.5t36 15.5q22 0 36.5 -15.5t14.5 -37.5z" />
    <glyph glyph-name="yen" unicode="&#xa5;" horiz-adv-x="270" 
d="M30 254h65v31q-27 3 -46 21t-19 47v375h79v-372h52v372h79v-375q0 -29 -19 -47t-46 -21v-31h65v-51h-65v-32h65v-52h-65v-119h-80v119h-65v52h65v32h-65v51z" />
    <glyph glyph-name="ellipsis" unicode="&#x2026;" horiz-adv-x="476" 
d="M142 46q0 -21 -14.5 -37t-36.5 -16t-36.5 16t-14.5 37t14.5 37t36.5 16t36.5 -16t14.5 -37zM289 46q0 -21 -14.5 -37t-36.5 -16t-36.5 16t-14.5 37t14.5 37t36.5 16t36.5 -16t14.5 -37zM436 46q0 -21 -14.5 -37t-36.5 -16t-36.5 16t-14.5 37t14.5 37t36.5 16t36.5 -16
t14.5 -37z" />
    <glyph glyph-name="quotedblbase" unicode="&#x201e;" horiz-adv-x="243" 
d="M119 -89l34 181h80l-54 -181h-60zM5 -89l34 181h80l-54 -181h-60z" />
    <glyph glyph-name="quotesinglbase" unicode="&#x201a;" horiz-adv-x="129" 
d="M5 -89l34 181h80l-54 -181h-60z" />
    <glyph glyph-name="florin" unicode="&#x192;" horiz-adv-x="317" 
d="M113 417h-42l12 69h42l30 175q5 31 26 49t51 18h85l-13 -78h-73l-28 -164h63l-12 -69h-63l-76 -452q-5 -31 -26 -49t-51 -18h-73l13 78h61z" />
    <glyph glyph-name="oe" unicode="&#x153;" horiz-adv-x="336" 
d="M98 0q-31 0 -49.5 18t-18.5 50v592q0 30 18.5 49t49.5 19h223v-71h-87v-256h73v-72h-73v-258h87v-71h-223zM155 71v586h-46v-586h46z" />
    <glyph glyph-name="Eth" unicode="&#xd0;" horiz-adv-x="265" 
d="M10 401h20v327h141q26 0 45 -19t19 -46v-599q0 -26 -19 -45t-45 -19h-141v329h-20v72zM156 657h-47v-256h20v-72h-20v-258h47v586z" />
    <glyph glyph-name="Euro" unicode="&#x20ac;" horiz-adv-x="273" 
d="M20 448h20v212q0 30 18 49t50 19h67q32 0 50 -19t18 -49v-168h-79v165h-45v-209h119v-61h-119v-46h119v-61h-119v-209h45v165h79v-168q0 -32 -18 -50t-50 -18h-67q-32 0 -50 18t-18 50v212h-20v61h20v46h-20v61z" />
    <glyph glyph-name="braceleft" unicode="{" horiz-adv-x="190" 
d="M10 383h21q26 0 35.5 10.5t9.5 42.5v294q0 32 18 50t50 18h61v-44h-48v-290q0 -42 -6.5 -65t-36.5 -31v-8q30 -8 36.5 -31t6.5 -65v-290h48v-44h-61q-32 0 -50 18t-18 50v294q0 32 -9.5 42.5t-35.5 10.5h-21v38z" />
    <glyph glyph-name="braceright" unicode="}" horiz-adv-x="190" 
d="M180 345h-21q-26 0 -35.5 -10.5t-9.5 -42.5v-294q0 -32 -18 -50t-50 -18h-61v44h48v290q0 42 6.5 65t36.5 31v8q-30 8 -36.5 31t-6.5 65v290h-48v44h61q32 0 50 -18t18 -50v-294q0 -32 9.5 -42.5t35.5 -10.5h21v-38z" />
    <glyph glyph-name="Mr.Smiley" unicode="&#xf8ff;" horiz-adv-x="836" 
d="M537 242q-154 -39 -310 0q10 -17 24.5 -35t34 -34t43.5 -26t53 -10q28 0 52 10t43.5 26t34.5 34t25 35zM600 340h-436l53 -84q83 -20 164.5 -19.5t164.5 19.5zM323 453q-13 27 -21 56t-25 52q-3 4 -12.5 0t-20 -10.5t-18 -13t-5.5 -8.5l72 -90q1 -2 6.5 -0.5t11 4
t9.5 5.5t3 5zM419 371l-37 89l-36 -89h73zM542 529q1 2 -6 8.5t-17 13t-19.5 10.5t-12.5 0q-18 -23 -26.5 -52t-19.5 -56q-2 -2 2 -5t10 -5.5t11 -4t7 0.5zM657 371q0 -57 -21.5 -107t-59 -87.5t-87.5 -59t-107 -21.5t-107 21.5t-87.5 59t-59.5 87.5t-22 107t22 107
t59.5 87.5t87.5 59t107 21.5t107 -21.5t87.5 -59t59 -87.5t21.5 -107zM677 371q0 61 -23 115t-63 94t-94 63.5t-115 23.5t-115 -23.5t-94.5 -63.5t-64 -94t-23.5 -115t23.5 -114.5t64 -94t94.5 -64t115 -23.5t115 23.5t94 64t63 94t23 114.5zM707 104h-26v-69h-19v69h-25v16
h70v-16zM724 371q0 -71 -27 -133t-73.5 -109t-109 -74t-132.5 -27q-71 0 -133 27t-108.5 74t-73.5 109t-27 133t27 133.5t73.5 109t108.5 73.5t133 27q70 0 132.5 -27t109 -73.5t73.5 -109t27 -133.5zM796 35h-15v69l-17 -69h-16l-17 69v-69h-16v85h25l17 -66l14 66h25v-85z
" />
    <glyph glyph-name="zcaron" horiz-adv-x="217" 
d="M198 728l-85 -657h89v-71h-181l85 657h-91v71h183zM73 768v8l-80 82h65l52 -44l52 44h65l-81 -82v-8h-73z" />
    <glyph glyph-name="zcaron" unicode="&#x17e;" horiz-adv-x="217" 
d="M198 728l-85 -657h89v-71h-181l85 657h-91v71h183zM73 768v8l-80 82h65l52 -44l52 44h65l-81 -82v-8h-73z" />
    <glyph glyph-name="scaron" unicode="&#x161;" horiz-adv-x="253" 
d="M149 236q0 9 -2 15t-7 14l-104 174q-8 14 -9.5 24t-1.5 22v182q0 32 18 46.5t50 14.5h67q32 0 50 -14.5t18 -46.5v-175h-79v165h-45v-165q0 -9 2.5 -15.5t6.5 -13.5l98 -164q6 -9 9 -16t5 -14t2.5 -16t0.5 -22v-170q0 -32 -18 -46.5t-50 -14.5h-67q-32 0 -50 14.5
t-18 46.5v175h79v-165h45v165zM91 768v8l-80 82h65l52 -44l52 44h65l-81 -82v-8h-73z" />
    <glyph glyph-name="agrave" unicode="&#xe0;" horiz-adv-x="265" 
d="M30 663q0 27 19 46t46 19h75q27 0 46 -19t19 -46v-663h-79v329h-47v-329h-79v663zM156 657h-47v-256h47v256zM105 858v-14l68 -76h-63l-94 79v11h89z" />
    <glyph glyph-name="aacute" unicode="&#xe1;" horiz-adv-x="265" 
d="M30 663q0 27 19 46t46 19h75q27 0 46 -19t19 -46v-663h-79v329h-47v-329h-79v663zM156 657h-47v-256h47v256zM261 858v-11l-94 -79h-63l68 76v14h89z" />
    <glyph glyph-name="acircumflex" unicode="&#xe2;" horiz-adv-x="265" 
d="M30 663q0 27 19 46t46 19h75q27 0 46 -19t19 -46v-663h-79v329h-47v-329h-79v663zM156 657h-47v-256h47v256zM169 858v-8l81 -82h-65l-52 44l-52 -44h-65l80 82v8h73z" />
    <glyph glyph-name="atilde" unicode="&#xe3;" horiz-adv-x="265" 
d="M240 773q-23 -11 -43 -11q-17 0 -34 6.5t-33.5 14t-31 13.5t-26.5 5v-33h-45v70q13 6 23.5 8t19.5 2q17 0 34 -6t33.5 -13t31 -12.5t26.5 -5.5v33h45v-71zM30 663q0 27 19 46t46 19h75q27 0 46 -19t19 -46v-663h-79v329h-47v-329h-79v663zM156 657h-47v-256h47v256z" />
    <glyph glyph-name="adieresis" unicode="&#xe4;" horiz-adv-x="265" 
d="M30 663q0 27 19 46t46 19h75q27 0 46 -19t19 -46v-663h-79v329h-47v-329h-79v663zM156 657h-47v-256h47v256zM15 812q0 22 14.5 37t36.5 15t37 -15t15 -37t-15 -36.5t-37 -14.5t-36.5 14.5t-14.5 36.5zM149 812q0 22 14.5 37t36.5 15t37 -15t15 -37t-15 -36.5t-37 -14.5
t-36.5 14.5t-14.5 36.5z" />
    <glyph glyph-name="aring" unicode="&#xe5;" horiz-adv-x="265" 
d="M30 663q0 27 19 46t46 19h75q27 0 46 -19t19 -46v-663h-79v329h-47v-329h-79v663zM156 657h-47v-256h47v256zM73 818q0 25 17.5 42.5t42.5 17.5t42.5 -17.5t17.5 -42.5t-17.5 -42.5t-42.5 -17.5t-42.5 17.5t-17.5 42.5zM109 817q0 -10 6.5 -16.5t16.5 -6.5t17 6.5t7 16.5
t-7 17t-17 7t-16.5 -7t-6.5 -17z" />
    <glyph glyph-name="ccedilla" unicode="&#xe7;" horiz-adv-x="258" 
d="M233 68q0 -32 -18 -50t-50 -18h-7l-17 -25q6 2 13 3t12 1q26 0 43 -15t17 -42q0 -36 -25 -53t-57 -18q-20 -1 -41.5 5.5t-38.5 18.5l15 38q8 -7 22 -12.5t27 -5.5q12 0 22 7t10 21q0 8 -6.5 15.5t-17.5 7.5q-7 0 -13.5 -1t-14.5 -6l-27 17l31 44h-14q-32 0 -50 18t-18 50
v592q0 30 18 49t50 19h67q32 0 50 -19t18 -49v-168h-79v165h-45v-586h45v165h79v-168v0z" />
    <glyph glyph-name="egrave" unicode="&#xe8;" horiz-adv-x="211" 
d="M30 0v728h166v-71h-87v-256h73v-72h-73v-258h87v-71h-166zM85 858v-14l68 -76h-63l-94 79v11h89z" />
    <glyph glyph-name="edieresis" unicode="&#xeb;" horiz-adv-x="211" 
d="M30 0v728h166v-71h-87v-256h73v-72h-73v-258h87v-71h-166zM-4 812q0 22 14.5 37t36.5 15t37 -15t15 -37t-15 -36.5t-37 -14.5t-36.5 14.5t-14.5 36.5zM130 812q0 22 14.5 37t36.5 15t37 -15t15 -37t-15 -36.5t-37 -14.5t-36.5 14.5t-14.5 36.5z" />
    <glyph glyph-name="ecircumflex" unicode="&#xea;" horiz-adv-x="211" 
d="M30 0v728h166v-71h-87v-256h73v-72h-73v-258h87v-71h-166zM143 858v-8l81 -82h-65l-52 44l-52 -44h-65l80 82v8h73z" />
    <glyph glyph-name="eacute" unicode="&#xe9;" horiz-adv-x="211" 
d="M30 0v728h166v-71h-87v-256h73v-72h-73v-258h87v-71h-166zM216 858v-11l-94 -79h-63l68 76v14h89z" />
    <glyph glyph-name="ntilde" unicode="&#xf1;" horiz-adv-x="282" 
d="M100 728l74 -366v366h78v-728h-70l-74 376v-376h-78v728h70zM247 773q-23 -11 -43 -11q-17 0 -34 6.5t-33.5 14t-31 13.5t-26.5 5v-33h-45v70q13 6 23.5 8t19.5 2q17 0 34 -6t33.5 -13t31 -12.5t26.5 -5.5v33h45v-71z" />
    <glyph glyph-name="ucircumflex" unicode="&#xfb;" 
d="M233 728v-660q0 -32 -18.5 -50t-49.5 -18h-67q-32 0 -50 18t-18 50v660h79v-657h45v657h79zM169 858v-8l81 -82h-65l-52 44l-52 -44h-65l80 82v8h73z" />
    <glyph glyph-name="ydieresis" unicode="&#xff;" horiz-adv-x="258" 
d="M91 0v225q-27 3 -45.5 21t-18.5 47v435h79v-432h50v432h79v-435q0 -29 -18.5 -47t-45.5 -21v-225h-80zM12 812q0 22 14.5 37t36.5 15t37 -15t15 -37t-15 -36.5t-37 -14.5t-36.5 14.5t-14.5 36.5zM146 812q0 22 14.5 37t36.5 15t37 -15t15 -37t-15 -36.5t-37 -14.5
t-36.5 14.5t-14.5 36.5z" />
    <glyph glyph-name="ograve" unicode="&#xf2;" 
d="M155 71v586h-46v-586h46zM233 68q0 -32 -18.5 -50t-49.5 -18h-67q-31 0 -49.5 18t-18.5 50v592q0 30 18.5 49t49.5 19h67q31 0 49.5 -19t18.5 -49v-592zM95 858v-14l68 -76h-63l-94 79v11h89z" />
    <glyph glyph-name="oacute" unicode="&#xf3;" 
d="M155 71v586h-46v-586h46zM233 68q0 -32 -18.5 -50t-49.5 -18h-67q-31 0 -49.5 18t-18.5 50v592q0 30 18.5 49t49.5 19h67q31 0 49.5 -19t18.5 -49v-592zM258 858v-11l-94 -79h-63l68 76v14h89z" />
    <glyph glyph-name="ocircumflex" unicode="&#xf4;" 
d="M155 71v586h-46v-586h46zM233 68q0 -32 -18.5 -50t-49.5 -18h-67q-31 0 -49.5 18t-18.5 50v592q0 30 18.5 49t49.5 19h67q31 0 49.5 -19t18.5 -49v-592zM169 858v-8l81 -82h-65l-52 44l-52 -44h-65l80 82v8h73z" />
    <glyph glyph-name="otilde" unicode="&#xf5;" 
d="M155 71v586h-46v-586h46zM233 68q0 -32 -18.5 -50t-49.5 -18h-67q-31 0 -49.5 18t-18.5 50v592q0 30 18.5 49t49.5 19h67q31 0 49.5 -19t18.5 -49v-592zM239 773q-23 -11 -43 -11q-17 0 -34 6.5t-33.5 14t-31 13.5t-26.5 5v-33h-45v70q13 6 23.5 8t19.5 2q17 0 34 -6
t33.5 -13t31 -12.5t26.5 -5.5v33h45v-71z" />
    <glyph glyph-name="odieresis" unicode="&#xf6;" 
d="M155 71v586h-46v-586h46zM233 68q0 -32 -18.5 -50t-49.5 -18h-67q-31 0 -49.5 18t-18.5 50v592q0 30 18.5 49t49.5 19h67q31 0 49.5 -19t18.5 -49v-592zM14 812q0 22 14.5 37t36.5 15t37 -15t15 -37t-15 -36.5t-37 -14.5t-36.5 14.5t-14.5 36.5zM148 812q0 22 14.5 37
t36.5 15t37 -15t15 -37t-15 -36.5t-37 -14.5t-36.5 14.5t-14.5 36.5z" />
    <glyph glyph-name="ugrave" unicode="&#xf9;" 
d="M233 728v-660q0 -32 -18.5 -50t-49.5 -18h-67q-32 0 -50 18t-18 50v660h79v-657h45v657h79zM98 858v-14l68 -76h-63l-94 79v11h89z" />
    <glyph glyph-name="uacute" unicode="&#xfa;" 
d="M233 728v-660q0 -32 -18.5 -50t-49.5 -18h-67q-32 0 -50 18t-18 50v660h79v-657h45v657h79zM255 858v-11l-94 -79h-63l68 76v14h89z" />
    <glyph glyph-name="udieresis" unicode="&#xfc;" 
d="M233 728v-660q0 -32 -18.5 -50t-49.5 -18h-67q-32 0 -50 18t-18 50v660h79v-657h45v657h79zM14 812q0 22 14.5 37t36.5 15t37 -15t15 -37t-15 -36.5t-37 -14.5t-36.5 14.5t-14.5 36.5zM148 812q0 22 14.5 37t36.5 15t37 -15t15 -37t-15 -36.5t-37 -14.5t-36.5 14.5
t-14.5 36.5z" />
    <glyph glyph-name="yacute" unicode="&#xfd;" horiz-adv-x="258" 
d="M91 0v225q-27 3 -45.5 21t-18.5 47v435h79v-432h50v432h79v-435q0 -29 -18.5 -47t-45.5 -21v-225h-80zM250 858v-11l-94 -79h-63l68 76v14h89z" />
    <glyph glyph-name="idieresis" unicode="&#xef;" horiz-adv-x="145" 
d="M33 728h80v-728h-80v728zM-45 812q0 22 14.5 37t36.5 15t37 -15t15 -37t-15 -36.5t-37 -14.5t-36.5 14.5t-14.5 36.5zM89 812q0 22 14.5 37t36.5 15t37 -15t15 -37t-15 -36.5t-37 -14.5t-36.5 14.5t-14.5 36.5z" />
    <glyph glyph-name="icircumflex" unicode="&#xee;" horiz-adv-x="145" 
d="M33 728h80v-728h-80v728zM110 858v-8l81 -82h-65l-52 44l-52 -44h-65l80 82v8h73z" />
    <glyph glyph-name="iacute" unicode="&#xed;" horiz-adv-x="145" 
d="M33 728h80v-728h-80v728zM197 858v-11l-94 -79h-63l68 76v14h89z" />
    <glyph glyph-name="igrave" unicode="&#xec;" horiz-adv-x="145" 
d="M33 728h80v-728h-80v728zM37 858v-14l68 -76h-63l-94 79v11h89z" />
    <glyph glyph-name="fi" unicode="&#xfb01;" horiz-adv-x="334" 
d="M171 437h-63v-437h-78v661q0 31 18 49t48 18h85v-71h-73v-151h63v-69zM226 0v506h78v-506h-78zM215 589q0 21 14.5 37t35.5 16t35.5 -16t14.5 -37q0 -20 -14.5 -36.5t-35.5 -16.5t-35.5 16.5t-14.5 36.5z" />
    <glyph glyph-name="fl" unicode="&#xfb02;" horiz-adv-x="334" 
d="M171 437h-63v-437h-78v661q0 31 18 49t48 18h85v-71h-73v-151h63v-69zM226 0v728h78v-728h-78z" />
    <glyph glyph-name="ff" unicode="&#xfb00;" horiz-adv-x="392" 
d="M171 437h-63v-437h-78v661q0 31 18 49t48 18h85v-71h-73v-151h63v-69zM367 437h-63v-437h-78v661q0 31 18 49t48 18h85v-71h-73v-151h63v-69z" />
    <glyph glyph-name="ffl" unicode="&#xfb04;" horiz-adv-x="530" 
d="M171 437h-63v-437h-78v661q0 31 18 49t48 18h85v-71h-73v-151h63v-69zM367 437h-63v-437h-78v661q0 31 18 49t48 18h85v-71h-73v-151h63v-69zM422 0v728h78v-728h-78z" />
    <glyph glyph-name="ffi" unicode="&#xfb03;" horiz-adv-x="530" 
d="M171 437h-63v-437h-78v661q0 31 18 49t48 18h85v-71h-73v-151h63v-69zM367 437h-63v-437h-78v661q0 31 18 49t48 18h85v-71h-73v-151h63v-69zM422 0v506h78v-506h-78zM411 589q0 21 14.5 37t35.5 16t35.5 -16t14.5 -37q0 -20 -14.5 -36.5t-35.5 -16.5t-35.5 16.5
t-14.5 36.5z" />
    <glyph glyph-name="numero" unicode="&#x2116;" horiz-adv-x="539" 
d="M509 248q0 -31 -18.5 -48.5t-48.5 -17.5h-65q-31 0 -49 17.5t-18 48.5v414q0 30 18 48t49 18h65q30 0 48.5 -18t18.5 -48v-414zM388 252h43v407h-43v-407zM30 728h70l74 -366v366h78v-728h-70l-74 376v-376h-78v728zM470 55q0 -25 -17.5 -43.5t-43.5 -18.5t-43 18.5
t-17 43.5t17 44t43 19t43.5 -19t17.5 -44z" />
    <glyph glyph-name="servicemark" unicode="&#x2120;" horiz-adv-x="679" 
d="M462 368l-86 253v-262h-61v368h81l88 -257l85 257h80v-368h-58v262l-87 -253h-42zM268 467q1 -55 -28.5 -85.5t-90.5 -30.5q-34 0 -66 18t-46 51l39 38q10 -21 28 -38.5t44 -17.5q36 0 46.5 16.5t10.5 42.5q-1 23 -17.5 37t-53.5 25q-45 14 -73.5 38t-29.5 70
q0 20 7.5 39t22 34t36.5 24t50 9q33 0 65.5 -12.5t46.5 -43.5l-39 -36q-11 21 -29.5 31.5t-39.5 10.5q-26 0 -42 -17t-15 -41q0 -18 13 -31t44 -23q22 -7 43 -16t37.5 -21.5t26.5 -30t10 -40.5z" />
    <glyph glyph-name="uni2117" unicode="&#x2117;" horiz-adv-x="803" 
d="M401 0q-75 0 -140.5 28.5t-114.5 78t-77.5 115t-28.5 140.5t28.5 140.5t77.5 115t114.5 78t140.5 28.5t140.5 -28.5t115 -78t78 -115t28.5 -140.5t-28.5 -140.5t-78 -115t-115 -78t-140.5 -28.5zM401 60q62 0 117 24t96 65t65 96t24 117t-24 117t-65 96t-96 65t-117 24
t-117 -24t-96 -65t-64.5 -96t-23.5 -117t23.5 -117t64.5 -96t96 -65t117 -24zM336 145h-62v423h159q73 0 109 -29t36 -92q-2 -57 -36 -87.5t-100 -30.5h-106v-184zM413 380q20 0 38.5 1.5t33 9t23 21.5t8.5 40q0 21 -8 33.5t-21.5 19.5t-30 9.5t-32.5 2.5h-88v-137h77z" />
    <glyph glyph-name="ampersand.001" unicode="&#xe001;" horiz-adv-x="321" 
d="M231 82v-16q0 -29 -18.5 -47.5t-45.5 -18.5h-72q-27 0 -45.5 18.5t-18.5 46.5v313q0 29 7 39.5t21 19.5l13 8l-32 77q-7 17 -8.5 32.5t-1.5 36.5v72q0 27 19 46t45 19h73q26 0 45.5 -19t19.5 -46l1 -171q0 -18 -2.5 -31t-22.5 -27l-37 -21l9 -20h117v-66h-65v-65l96 -242
l-59 -25zM110 71h53v174l-53 130v-304zM159 484v173h-51v-65q0 -11 1 -26t5 -26l24 -70z" />
    <glyph glyph-name="one.001" unicode="&#xe002;" horiz-adv-x="172" 
d="M15 0v69h34v588h-34v71h113v-659h34v-69h-147z" />
    <glyph glyph-name="exclamdown.001" unicode="&#xe003;" horiz-adv-x="142" 
d="M98 599h-57l-16 -599h89zM20 682q0 22 14.5 37.5t36.5 15.5q21 0 36 -15.5t15 -37.5q0 -21 -15 -37t-36 -16q-22 0 -36.5 16t-14.5 37z" />
    <glyph glyph-name="questiondown.001" unicode="&#xe004;" horiz-adv-x="253" 
d="M100 599h77v-169q0 -26 -4 -40t-13 -32l-52 -98q-3 -6 -3.5 -10t-0.5 -13v-166h45v165h79v-175q0 -32 -18 -46.5t-50 -14.5h-67q-32 0 -50 14.5t-18 46.5v177q0 25 11 48l56 111q6 11 7 18t1 16v168zM190 682q0 -21 -14.5 -37t-36.5 -16q-21 0 -36 16t-15 37
q0 22 15 37.5t36 15.5q22 0 36.5 -15.5t14.5 -37.5z" />
    <glyph glyph-name="germandbls.001" unicode="&#xe005;" horiz-adv-x="285" 
d="M30 663q0 27 19 46t45 19h97q26 0 45 -19t19 -46v-244q0 -8 -1 -16.5t-5.5 -16.5t-13 -14t-23.5 -8q15 -2 23.5 -8t13 -14t5.5 -17t1 -16v-245q0 -26 -19 -45t-45 -19h-51v71h37v257h-37v73h37v256h-69v-657h-78v663z" />
    <glyph glyph-name="uni1E9E" unicode="&#x1e9e;" horiz-adv-x="306" 
d="M109 0h-79v660q0 30 18.5 49t49.5 19h109q31 0 51 -19t20 -49l-53 -258q27 0 41.5 -14.5t14.5 -39.5v-280q0 -32 -18.5 -50t-49.5 -18h-66v71h56v271q0 21 -23 21h-42l60 294h-89v-657z" />
    <glyph glyph-name="j.001" unicode="&#xe006;" horiz-adv-x="138" 
d="M30 -200h78v706h-78v-706zM19 589q0 21 14.5 37t35.5 16t35.5 -16t14.5 -37q0 -20 -14.5 -36.5t-35.5 -16.5t-35.5 16.5t-14.5 36.5z" />
    <glyph glyph-name="commaaccent" unicode="&#xe007;" horiz-adv-x="174" 
d="M62 -109q-13 6 -18 18t-2 25t13 23t28 12q32 3 44 -15t12 -41q0 -43 -25 -74.5t-66 -54.5l-25 27q29 18 37.5 38.5t1.5 41.5z" />
    <glyph glyph-name="invertedbreve" unicode="&#xe008;" horiz-adv-x="282" 
d="M144 851q22 0 41.5 -1.5t34 -9.5t23 -25t8.5 -47h-61q2 23 -6 31.5t-28 8.5h-30q-20 0 -28 -8.5t-6 -31.5h-61q0 30 8.5 47t23 25t34 9.5t41.5 1.5h6z" />
    <glyph glyph-name="doublegrave" unicode="&#xe009;" horiz-adv-x="310" 
d="M218 858v-14l62 -76h-60l-80 79v11h78zM110 858v-14l74 -76h-60l-94 79v11h80z" />
    <glyph glyph-name="horn" unicode="&#xe010;" horiz-adv-x="154" 
d="M124 727v-69q0 -26 -11 -39.5t-26.5 -19t-31.5 -5.5t-25 1v50h11q8 0 12.5 3.5t4.5 17.5v61h66z" />
    <glyph glyph-name="Amacron" unicode="&#x100;" horiz-adv-x="265" 
d="M30 663q0 27 19 46t46 19h75q27 0 46 -19t19 -46v-663h-79v329h-47v-329h-79v663zM156 657h-47v-256h47v256zM29 823h206v-55h-206v55z" />
    <glyph glyph-name="Abreve" unicode="&#x102;" horiz-adv-x="265" 
d="M30 663q0 27 19 46t46 19h75q27 0 46 -19t19 -46v-663h-79v329h-47v-329h-79v663zM156 657h-47v-256h47v256zM131 763q-22 0 -41.5 1.5t-34 9.5t-23 25t-8.5 47h61q-2 -23 6 -31.5t28 -8.5h30q20 0 28 8.5t6 31.5h61q0 -30 -8.5 -47t-23 -25t-34 -9.5t-41.5 -1.5h-6z" />
    <glyph glyph-name="uni0200" unicode="&#x200;" horiz-adv-x="265" 
d="M30 663q0 27 19 46t46 19h75q27 0 46 -19t19 -46v-663h-79v329h-47v-329h-79v663zM156 657h-47v-256h47v256zM150 858v-14l62 -76h-60l-80 79v11h78zM42 858v-14l74 -76h-60l-94 79v11h80z" />
    <glyph glyph-name="Aringacute" unicode="&#x1fa;" horiz-adv-x="265" 
d="M246 945v-11l-81 -65q13 -8 20.5 -21.5t7.5 -29.5q0 -25 -17.5 -42.5t-42.5 -17.5t-42.5 17.5t-17.5 42.5q0 17 9.5 32t29.5 22l48 59v14h86zM109 817q0 -10 6.5 -16.5t16.5 -6.5t17 6.5t7 16.5t-7 17t-17 7t-16.5 -7t-6.5 -17zM30 663q0 27 19 46t46 19h75q27 0 46 -19
t19 -46v-663h-79v329h-47v-329h-79v663zM156 657h-47v-256h47v256z" />
    <glyph glyph-name="Aogonek" unicode="&#x104;" horiz-adv-x="265" 
d="M30 663q0 27 19 46t46 19h75q27 0 46 -19t19 -46v-663h-8l-63 -103q-10 -17 -7.5 -26t23.5 -9h55v-62h-84q-21 0 -36 9t-21.5 24.5t-3.5 35.5t17 42l57 89h-8v329h-47v-329h-79v663zM156 657h-47v-256h47v256z" />
    <glyph glyph-name="uni0202" unicode="&#x202;" horiz-adv-x="265" 
d="M30 663q0 27 19 46t46 19h75q27 0 46 -19t19 -46v-663h-79v329h-47v-329h-79v663zM156 657h-47v-256h47v256zM137 851q22 0 41.5 -1.5t34 -9.5t23 -25t8.5 -47h-61q2 23 -6 31.5t-28 8.5h-30q-20 0 -28 -8.5t-6 -31.5h-61q0 30 8.5 47t23 25t34 9.5t41.5 1.5h6z" />
    <glyph glyph-name="AEacute" unicode="&#x1fc;" horiz-adv-x="343" 
d="M30 663q0 27 19 46t46 19h227v-71h-87v-256h73v-72h-73v-258h87v-71h-166v329h-47v-329h-79v663zM156 657h-47v-256h47v256zM303 858v-11l-94 -79h-63l68 76v14h89z" />
    <glyph glyph-name="Ccircumflex" unicode="&#x108;" horiz-adv-x="258" 
d="M233 68q0 -32 -18 -50t-50 -18h-67q-32 0 -50 18t-18 50v592q0 30 18 49t50 19h67q32 0 50 -19t18 -49v-168h-79v165h-45v-586h45v165h79v-168v0zM168 858v-8l81 -82h-65l-52 44l-52 -44h-65l80 82v8h73z" />
    <glyph glyph-name="Ccaron" unicode="&#x10c;" horiz-adv-x="258" 
d="M233 68q0 -32 -18 -50t-50 -18h-67q-32 0 -50 18t-18 50v592q0 30 18 49t50 19h67q32 0 50 -19t18 -49v-168h-79v165h-45v-586h45v165h79v-168v0zM168 770.953v7.99902l81 81.9951h-65l-52 -43.9971l-52 43.9971h-65l80 -81.9951v-7.99902h73z" />
    <glyph glyph-name="Cdotaccent" unicode="&#x10a;" 
d="M233 68q0 -32 -18 -50t-50 -18h-67q-32 0 -50 18t-18 50v592q0 30 18 49t50 19h67q32 0 50 -19t18 -49v-168h-79v165h-45v-586h45v165h79v-168v0zM82 811q0 21 14.5 37t35.5 16t35.5 -16t14.5 -37q0 -20 -14.5 -36.5t-35.5 -16.5t-35.5 16.5t-14.5 36.5z" />
    <glyph glyph-name="Cacute" unicode="&#x106;" 
d="M233 68q0 -32 -18 -50t-50 -18h-67q-32 0 -50 18t-18 50v592q0 30 18 49t50 19h67q32 0 50 -19t18 -49v-168h-79v165h-45v-586h45v165h79v-168v0zM259 858v-11l-94 -79h-63l68 76v14h89z" />
    <glyph glyph-name="Dcaron" unicode="&#x10e;" horiz-adv-x="265" 
d="M156 657h-47v-586h47v586zM235 64q0 -26 -19 -45t-45 -19h-141v728h141q26 0 45 -19t19 -46v-599zM170 767.953v8l81 81.9941h-65l-52 -43.9971l-52 43.9971h-65l80 -81.9941v-8h73z" />
    <glyph glyph-name="Dcroat" unicode="&#x110;" horiz-adv-x="270" 
d="M10 401h20v327h146q26 0 45 -19t19 -46v-599q0 -26 -19 -45t-45 -19h-146v329h-20v72zM161 657h-52v-256h25v-72h-25v-258h52v586z" />
    <glyph glyph-name="Emacron" unicode="&#x112;" horiz-adv-x="211" 
d="M30 0v728h166v-71h-87v-256h73v-72h-73v-258h87v-71h-166zM11 823h206v-55h-206v55z" />
    <glyph glyph-name="Ebreve" unicode="&#x114;" horiz-adv-x="211" 
d="M30 0v728h166v-71h-87v-256h73v-72h-73v-258h87v-71h-166zM111 763q-22 0 -41.5 1.5t-34 9.5t-23 25t-8.5 47h61q-2 -23 6 -31.5t28 -8.5h30q20 0 28 8.5t6 31.5h61q0 -30 -8.5 -47t-23 -25t-34 -9.5t-41.5 -1.5h-6z" />
    <glyph glyph-name="Ecaron" unicode="&#x11a;" horiz-adv-x="211" 
d="M30 0v728h166v-71h-87v-256h73v-72h-73v-258h87v-71h-166zM150 767.953v8l81 81.9941h-65l-52 -43.9971l-52 43.9971h-65l80 -81.9941v-8h73z" />
    <glyph glyph-name="Edotaccent" unicode="&#x116;" horiz-adv-x="211" 
d="M30 0v728h166v-71h-87v-256h73v-72h-73v-258h87v-71h-166zM63 811q0 21 14.5 37t35.5 16t35.5 -16t14.5 -37q0 -20 -14.5 -36.5t-35.5 -16.5t-35.5 16.5t-14.5 36.5z" />
    <glyph glyph-name="uni0204" unicode="&#x204;" horiz-adv-x="211" 
d="M30 0v728h166v-71h-87v-256h73v-72h-73v-258h87v-71h-166zM130 858v-14l62 -76h-60l-80 79v11h78zM22 858v-14l74 -76h-60l-94 79v11h80z" />
    <glyph glyph-name="Eogonek" unicode="&#x118;" horiz-adv-x="211" 
d="M188 0l-63 -103q-10 -17 -7.5 -26t23.5 -9h55v-62h-84q-21 0 -36 9t-21.5 24.5t-3.5 35.5t17 42l57 89h-95v728h166v-71h-87v-256h73v-72h-73v-258h87v-71h-8z" />
    <glyph glyph-name="uni0206" unicode="&#x206;" horiz-adv-x="211" 
d="M30 0v728h166v-71h-87v-256h73v-72h-73v-258h87v-71h-166zM117 851q22 0 41.5 -1.5t34 -9.5t23 -25t8.5 -47h-61q2 23 -6 31.5t-28 8.5h-30q-20 0 -28 -8.5t-6 -31.5h-61q0 30 8.5 47t23 25t34 9.5t41.5 1.5h6z" />
    <glyph glyph-name="Gbreve" unicode="&#x11e;" horiz-adv-x="264" 
d="M237 68q0 -32 -18 -50t-50 -18h-70q-31 0 -50 18t-19 50v592q0 30 19 49t50 19h70q32 0 50 -19t18 -49v-168h-79v165h-49v-586h49v258h-19v72h98v-333zM131 763q-22 0 -41.5 1.5t-34 9.5t-23 25t-8.5 47h61q-2 -23 6 -31.5t28 -8.5h30q20 0 28 8.5t6 31.5h61
q0 -30 -8.5 -47t-23 -25t-34 -9.5t-41.5 -1.5h-6z" />
    <glyph glyph-name="Gcircumflex" unicode="&#x11c;" horiz-adv-x="264" 
d="M237 68q0 -32 -18 -50t-50 -18h-70q-31 0 -50 18t-19 50v592q0 30 19 49t50 19h70q32 0 50 -19t18 -49v-168h-79v165h-49v-586h49v258h-19v72h98v-333zM170 858v-8l81 -82h-65l-52 44l-52 -44h-65l80 82v8h73z" />
    <glyph glyph-name="Gdotaccent" unicode="&#x120;" horiz-adv-x="264" 
d="M237 68q0 -32 -18 -50t-50 -18h-70q-31 0 -50 18t-19 50v592q0 30 19 49t50 19h70q32 0 50 -19t18 -49v-168h-79v165h-49v-586h49v258h-19v72h98v-333zM83 811q0 21 14.5 37t35.5 16t35.5 -16t14.5 -37q0 -20 -14.5 -36.5t-35.5 -16.5t-35.5 16.5t-14.5 36.5z" />
    <glyph glyph-name="Gcommaaccent" unicode="&#x122;" horiz-adv-x="264" 
d="M237 68q0 -32 -18 -50t-50 -18h-70q-31 0 -50 18t-19 50v592q0 30 19 49t50 19h70q32 0 50 -19t18 -49v-168h-79v165h-49v-586h49v258h-19v72h98v-333zM108 -109q-13 6 -18 18t-2 25t13 23t28 12q32 3 44 -15t12 -41q0 -43 -25 -74.5t-66 -54.5l-25 27q29 18 37.5 38.5
t1.5 41.5z" />
    <glyph glyph-name="Hcircumflex" unicode="&#x124;" horiz-adv-x="266" 
d="M157 401v327h79v-728h-79v329h-48v-329h-79v728h79v-327h48zM170 858v-8l81 -82h-65l-52 44l-52 -44h-65l80 82v8h73z" />
    <glyph glyph-name="Hbar" unicode="&#x126;" horiz-adv-x="266" 
d="M10 592h20v136h79v-136h48v136h79v-136h20v-55h-20v-537h-79v329h-48v-329h-79v537h-20v55zM157 401v136h-48v-136h48z" />
    <glyph glyph-name="uni012A" unicode="&#x12a;" horiz-adv-x="146" 
d="M33 728h80v-728h-80v728zM-29 823h206v-55h-206v55z" />
    <glyph glyph-name="Ibreve" unicode="&#x12c;" horiz-adv-x="146" 
d="M33 728h80v-728h-80v728zM71 763q-22 0 -41.5 1.5t-34 9.5t-23 25t-8.5 47h61q-2 -23 6 -31.5t28 -8.5h30q20 0 28 8.5t6 31.5h61q0 -30 -8.5 -47t-23 -25t-34 -9.5t-41.5 -1.5h-6z" />
    <glyph glyph-name="Itilde" unicode="&#x128;" horiz-adv-x="146" 
d="M33 728h80v-728h-80v728zM181 773q-23 -11 -43 -11q-17 0 -34 6.5t-33.5 14t-31 13.5t-26.5 5v-33h-45v70q13 6 23.5 8t19.5 2q17 0 34 -6t33.5 -13t31 -12.5t26.5 -5.5v33h45v-71z" />
    <glyph glyph-name="Idotaccent" unicode="&#x130;" horiz-adv-x="146" 
d="M33 728h80v-728h-80v728zM23 811q0 21 14.5 37t35.5 16t35.5 -16t14.5 -37q0 -20 -14.5 -36.5t-35.5 -16.5t-35.5 16.5t-14.5 36.5z" />
    <glyph glyph-name="uni0208" unicode="&#x208;" horiz-adv-x="146" 
d="M33 728h80v-728h-80v728zM92 858v-14l62 -76h-60l-80 79v11h78zM-16 858v-14l74 -76h-60l-94 79v11h80z" />
    <glyph glyph-name="uni020A" unicode="&#x20a;" horiz-adv-x="146" 
d="M33 728h80v-728h-80v728zM77 851q22 0 41.5 -1.5t34 -9.5t23 -25t8.5 -47h-61q2 23 -6 31.5t-28 8.5h-30q-20 0 -28 -8.5t-6 -31.5h-61q0 30 8.5 47t23 25t34 9.5t41.5 1.5h6z" />
    <glyph glyph-name="Iogonek" unicode="&#x12e;" horiz-adv-x="146" 
d="M33 728h80v-728h-9l-36 -101q-7 -18 -5 -27.5t23 -9.5h45v-62h-69q-43 0 -59 27t4 79l35 94h-9v728z" />
    <glyph glyph-name="Jcircumflex" unicode="&#x134;" horiz-adv-x="258" 
d="M25 236h79v-165h45v657h79v-660q0 -32 -18 -50t-50 -18h-67q-32 0 -50 18t-18 50v168zM143 858v-8l81 -82h-65l-52 44l-52 -44h-65l80 82v8h73z" />
    <glyph glyph-name="IJ" unicode="&#x132;" horiz-adv-x="401" 
d="M33 728h80v-728h-80v728zM168 236h79v-165h45v657h79v-660q0 -32 -18 -50t-50 -18h-67q-32 0 -50 18t-18 50v168z" />
    <glyph glyph-name="Kcommaaccent" unicode="&#x136;" horiz-adv-x="262" 
d="M109 728v-327h16l47 327h78l-54 -331q15 -2 23 -8t11.5 -14t4 -17t0.5 -17v-341h-79v329h-47v-329h-79v728h79zM109 -109q-13 6 -18 18t-2 25t13 23t28 12q32 3 44 -15t12 -41q0 -43 -25 -74.5t-66 -54.5l-25 27q29 18 37.5 38.5t1.5 41.5z" />
    <glyph glyph-name="Ldot" unicode="&#x13f;" horiz-adv-x="265" 
d="M30 0v728h79v-657h82v-71h-161zM152 365q0 21 14.5 37t35.5 16t35.5 -16t14.5 -37q0 -20 -14.5 -36.5t-35.5 -16.5t-35.5 16.5t-14.5 36.5z" />
    <glyph glyph-name="Lcommaaccent" unicode="&#x13b;" horiz-adv-x="206" 
d="M30 0v728h79v-657h82v-71h-161zM86 -109q-13 6 -18 18t-2 25t13 23t28 12q32 3 44 -15t12 -41q0 -43 -25 -74.5t-66 -54.5l-25 27q29 18 37.5 38.5t1.5 41.5z" />
    <glyph glyph-name="Lacute" unicode="&#x139;" horiz-adv-x="206" 
d="M30 0v728h79v-657h82v-71h-161zM195 858v-11l-94 -79h-63l68 76v14h89z" />
    <glyph glyph-name="Lcaron" unicode="&#x13d;" horiz-adv-x="286" 
d="M200 648q-20 2 -28.5 14t-8.5 27q0 20 12.5 34.5t37.5 14.5q28 0 40.5 -16t12.5 -39q0 -40 -22 -69t-59 -51l-21 20q20 15 30 31.5t6 33.5zM30 0v728h79v-657h82v-71h-161z" />
    <glyph glyph-name="Ncaron" unicode="&#x147;" horiz-adv-x="282" 
d="M100 728l74 -366v366h78v-728h-70l-74 376v-376h-78v728h70zM178 767.953v8l81 81.9941h-65l-52 -43.9971l-52 43.9971h-65l80 -81.9941v-8h73z" />
    <glyph glyph-name="Nacute" unicode="&#x143;" horiz-adv-x="282" 
d="M100 728l74 -366v366h78v-728h-70l-74 376v-376h-78v728h70zM268 858v-11l-94 -79h-63l68 76v14h89z" />
    <glyph glyph-name="Ncommaaccent" unicode="&#x145;" horiz-adv-x="282" 
d="M100 728l74 -366v366h78v-728h-70l-74 376v-376h-78v728h70zM123 -109q-13 6 -18 18t-2 25t13 23t28 12q32 3 44 -15t12 -41q0 -43 -25 -74.5t-66 -54.5l-25 27q29 18 37.5 38.5t1.5 41.5z" />
    <glyph glyph-name="Eng" unicode="&#x14a;" horiz-adv-x="282" 
d="M100 728l74 -370v370h78v-860q0 -32 -18 -50t-50 -18h-78v78h68l-1 170l-65 328v-376h-78v728h70z" />
    <glyph glyph-name="Omacron" unicode="&#x14c;" 
d="M155 71v586h-46v-586h46zM233 68q0 -32 -18.5 -50t-49.5 -18h-67q-31 0 -49.5 18t-18.5 50v592q0 30 18.5 49t49.5 19h67q31 0 49.5 -19t18.5 -49v-592zM29 823h206v-55h-206v55z" />
    <glyph glyph-name="Obreve" unicode="&#x14e;" 
d="M155 71v586h-46v-586h46zM233 68q0 -32 -18.5 -50t-49.5 -18h-67q-31 0 -49.5 18t-18.5 50v592q0 30 18.5 49t49.5 19h67q31 0 49.5 -19t18.5 -49v-592zM130 763q-22 0 -41.5 1.5t-34 9.5t-23 25t-8.5 47h61q-2 -23 6 -31.5t28 -8.5h30q20 0 28 8.5t6 31.5h61
q0 -30 -8.5 -47t-23 -25t-34 -9.5t-41.5 -1.5h-6z" />
    <glyph glyph-name="Ohorn" unicode="&#x1a0;" horiz-adv-x="329" 
d="M233 645h6q8 0 12.5 3.5t4.5 17.5v61h66v-69q0 -25 -10 -38.5t-24 -19.5t-29.5 -6.5t-25.5 0.5v-526q0 -32 -18.5 -50t-49.5 -18h-67q-31 0 -49.5 18t-18.5 50v592q0 30 18.5 49t49.5 19h67q31 0 49.5 -19t18.5 -49v-15zM155 71v586h-46v-586h46z" />
    <glyph glyph-name="Oslashacute" unicode="&#x1fe;" 
d="M98 0q-16 0 -32 7l-11 -32l-24 8l13 39q-14 17 -14 46v592q0 30 18.5 49t49.5 19h67q16 0 32 -7l11 32l24 -8l-13 -39q14 -17 14 -46v-592q0 -32 -18.5 -50t-49.5 -18h-67zM155 71v353l-46 -255v-98h46zM109 304l46 257v96h-46v-353zM255 858v-11l-94 -79h-63l68 76v14
h89z" />
    <glyph glyph-name="uni020C" unicode="&#x20c;" 
d="M155 71v586h-46v-586h46zM233 68q0 -32 -18.5 -50t-49.5 -18h-67q-31 0 -49.5 18t-18.5 50v592q0 30 18.5 49t49.5 19h67q31 0 49.5 -19t18.5 -49v-592zM148 858v-14l62 -76h-60l-80 79v11h78zM40 858v-14l74 -76h-60l-94 79v11h80z" />
    <glyph glyph-name="Ohungarumlaut" unicode="&#x150;" 
d="M155 71v586h-46v-586h46zM233 68q0 -32 -18.5 -50t-49.5 -18h-67q-31 0 -49.5 18t-18.5 50v592q0 30 18.5 49t49.5 19h67q31 0 49.5 -19t18.5 -49v-592zM193 858v-11l-80 -79h-60l62 76v14h78zM303 858v-11l-94 -79h-60l74 76v14h80z" />
    <glyph glyph-name="uni020E" unicode="&#x20e;" 
d="M155 71v586h-46v-586h46zM233 68q0 -32 -18.5 -50t-49.5 -18h-67q-31 0 -49.5 18t-18.5 50v592q0 30 18.5 49t49.5 19h67q31 0 49.5 -19t18.5 -49v-592zM136 851q22 0 41.5 -1.5t34 -9.5t23 -25t8.5 -47h-61q2 23 -6 31.5t-28 8.5h-30q-20 0 -28 -8.5t-6 -31.5h-61
q0 30 8.5 47t23 25t34 9.5t41.5 1.5h6z" />
    <glyph glyph-name="Rcaron" unicode="&#x158;" horiz-adv-x="265" 
d="M170 728q27 0 46 -19t19 -45v-242q0 -8 -1 -17.5t-5.5 -18t-13.5 -14.5t-24 -8q31 -5 37.5 -21.5t6.5 -32.5v-310h-79v329h-47v-329h-79v728h140zM156 401v256h-47v-256h47zM169 767.953v8l81 81.9941h-65l-52 -43.9971l-52 43.9971h-65l80 -81.9941v-8h73z" />
    <glyph glyph-name="Racute" unicode="&#x154;" horiz-adv-x="265" 
d="M170 728q27 0 46 -19t19 -45v-242q0 -8 -1 -17.5t-5.5 -18t-13.5 -14.5t-24 -8q31 -5 37.5 -21.5t6.5 -32.5v-310h-79v329h-47v-329h-79v728h140zM156 401v256h-47v-256h47zM251 858v-11l-94 -79h-63l68 76v14h89z" />
    <glyph glyph-name="Rcommaaccent" unicode="&#x156;" horiz-adv-x="265" 
d="M170 728q27 0 46 -19t19 -45v-242q0 -8 -1 -17.5t-5.5 -18t-13.5 -14.5t-24 -8q31 -5 37.5 -21.5t6.5 -32.5v-310h-79v329h-47v-329h-79v728h140zM156 401v256h-47v-256h47zM109 -109q-13 6 -18 18t-2 25t13 23t28 12q32 3 44 -15t12 -41q0 -43 -25 -74.5t-66 -54.5
l-25 27q29 18 37.5 38.5t1.5 41.5z" />
    <glyph glyph-name="uni0210" unicode="&#x210;" horiz-adv-x="265" 
d="M170 728q27 0 46 -19t19 -45v-242q0 -8 -1 -17.5t-5.5 -18t-13.5 -14.5t-24 -8q31 -5 37.5 -21.5t6.5 -32.5v-310h-79v329h-47v-329h-79v728h140zM156 401v256h-47v-256h47zM147 858v-14l62 -76h-60l-80 79v11h78zM39 858v-14l74 -76h-60l-94 79v11h80z" />
    <glyph glyph-name="uni0212" unicode="&#x212;" horiz-adv-x="265" 
d="M170 728q27 0 46 -19t19 -45v-242q0 -8 -1 -17.5t-5.5 -18t-13.5 -14.5t-24 -8q31 -5 37.5 -21.5t6.5 -32.5v-310h-79v329h-47v-329h-79v728h140zM156 401v256h-47v-256h47zM132 851q22 0 41.5 -1.5t34 -9.5t23 -25t8.5 -47h-61q2 23 -6 31.5t-28 8.5h-30q-20 0 -28 -8.5
t-6 -31.5h-61q0 30 8.5 47t23 25t34 9.5t41.5 1.5h6z" />
    <glyph glyph-name="Scircumflex" unicode="&#x15c;" horiz-adv-x="253" 
d="M149 236q0 9 -2 15t-7 14l-104 174q-8 14 -9.5 24t-1.5 22v182q0 32 18 46.5t50 14.5h67q32 0 50 -14.5t18 -46.5v-175h-79v165h-45v-165q0 -9 2.5 -15.5t6.5 -13.5l98 -164q6 -9 9 -16t5 -14t2.5 -16t0.5 -22v-170q0 -32 -18 -46.5t-50 -14.5h-67q-32 0 -50 14.5
t-18 46.5v175h79v-165h45v165zM163 858v-8l81 -82h-65l-52 44l-52 -44h-65l80 82v8h73z" />
    <glyph glyph-name="Sacute" unicode="&#x15a;" horiz-adv-x="253" 
d="M149 236q0 9 -2 15t-7 14l-104 174q-8 14 -9.5 24t-1.5 22v182q0 32 18 46.5t50 14.5h67q32 0 50 -14.5t18 -46.5v-175h-79v165h-45v-165q0 -9 2.5 -15.5t6.5 -13.5l98 -164q6 -9 9 -16t5 -14t2.5 -16t0.5 -22v-170q0 -32 -18 -46.5t-50 -14.5h-67q-32 0 -50 14.5
t-18 46.5v175h79v-165h45v165zM256 858v-11l-94 -79h-63l68 76v14h89z" />
    <glyph glyph-name="uni015E" unicode="&#x15e;" horiz-adv-x="253" 
d="M93 0q-32 0 -50 14.5t-18 46.5v175h79v-165h45v165q0 9 -2 15t-7 14l-104 174q-8 14 -9.5 24t-1.5 22v182q0 32 18 46.5t50 14.5h67q32 0 50 -14.5t18 -46.5v-175h-79v165h-45v-165q0 -9 2.5 -15.5t6.5 -13.5l98 -164q6 -9 9 -16t5 -14t2.5 -16t0.5 -22v-170
q0 -32 -18 -46.5t-50 -14.5h-13l-17 -25q6 2 13 3t12 1q26 0 43 -15t17 -42q0 -36 -25 -53t-57 -18q-20 -1 -41.5 5.5t-38.5 18.5l15 38q8 -7 22 -12.5t27 -5.5q12 0 22 7t10 21q0 8 -6.5 15.5t-17.5 7.5q-7 0 -13.5 -1t-14.5 -6l-27 17l31 44h-8z" />
    <glyph glyph-name="uni0218" unicode="&#x218;" horiz-adv-x="253" 
d="M149 236q0 9 -2 15t-7 14l-104 174q-8 14 -9.5 24t-1.5 22v182q0 32 18 46.5t50 14.5h67q32 0 50 -14.5t18 -46.5v-175h-79v165h-45v-165q0 -9 2.5 -15.5t6.5 -13.5l98 -164q6 -9 9 -16t5 -14t2.5 -16t0.5 -22v-170q0 -32 -18 -46.5t-50 -14.5h-67q-32 0 -50 14.5
t-18 46.5v175h79v-165h45v165zM103 -109q-13 6 -18 18t-2 25t13 23t28 12q32 3 44 -15t12 -41q0 -43 -25 -74.5t-66 -54.5l-25 27q29 18 37.5 38.5t1.5 41.5z" />
    <glyph glyph-name="uni0162" unicode="&#x162;" horiz-adv-x="231" 
d="M73 0v657h-58v71h201v-71h-58v-657h-21l-17 -25q6 2 13 3t12 1q26 0 43 -15t17 -42q0 -36 -25 -53t-57 -18q-20 -1 -41.5 5.5t-38.5 18.5l15 38q8 -7 22 -12.5t27 -5.5q12 0 22 7t10 21q0 8 -6.5 15.5t-17.5 7.5q-7 0 -13.5 -1t-14.5 -6l-27 17l31 44h-18z" />
    <glyph glyph-name="Tbar" unicode="&#x166;" horiz-adv-x="231" 
d="M25 392h48v265h-58v71h201v-71h-58v-265h48v-55h-48v-337h-85v337h-48v55z" />
    <glyph glyph-name="Tcaron" unicode="&#x164;" horiz-adv-x="231" 
d="M216 728v-71h-58v-657h-85v657h-58v71h201zM154 767.953v8l81 81.9941h-65l-52 -43.9971l-52 43.9971h-65l80 -81.9941v-8h73z" />
    <glyph glyph-name="uni021A" unicode="&#x21a;" horiz-adv-x="231" 
d="M216 728v-71h-58v-657h-85v657h-58v71h201zM87 -109q-13 6 -18 18t-2 25t13 23t28 12q32 3 44 -15t12 -41q0 -43 -25 -74.5t-66 -54.5l-25 27q29 18 37.5 38.5t1.5 41.5z" />
    <glyph glyph-name="Umacron" unicode="&#x16a;" 
d="M233 728v-660q0 -32 -18.5 -50t-49.5 -18h-67q-32 0 -50 18t-18 50v660h79v-657h45v657h79zM29 823h206v-55h-206v55z" />
    <glyph glyph-name="Ubreve" unicode="&#x16c;" 
d="M233 728v-660q0 -32 -18.5 -50t-49.5 -18h-67q-32 0 -50 18t-18 50v660h79v-657h45v657h79zM130 763q-22 0 -41.5 1.5t-34 9.5t-23 25t-8.5 47h61q-2 -23 6 -31.5t28 -8.5h30q20 0 28 8.5t6 31.5h61q0 -30 -8.5 -47t-23 -25t-34 -9.5t-41.5 -1.5h-6z" />
    <glyph glyph-name="Utilde" unicode="&#x168;" 
d="M233 728v-660q0 -32 -18.5 -50t-49.5 -18h-67q-32 0 -50 18t-18 50v660h79v-657h45v657h79zM240 773q-23 -11 -43 -11q-17 0 -34 6.5t-33.5 14t-31 13.5t-26.5 5v-33h-45v70q13 6 23.5 8t19.5 2q17 0 34 -6t33.5 -13t31 -12.5t26.5 -5.5v33h45v-71z" />
    <glyph glyph-name="Uring" unicode="&#x16e;" 
d="M233 728v-660q0 -32 -18.5 -50t-49.5 -18h-67q-32 0 -50 18t-18 50v660h79v-657h45v657h79zM72 818q0 25 17.5 42.5t42.5 17.5t42.5 -17.5t17.5 -42.5t-17.5 -42.5t-42.5 -17.5t-42.5 17.5t-17.5 42.5zM108 817q0 -10 6.5 -16.5t16.5 -6.5t17 6.5t7 16.5t-7 17t-17 7
t-16.5 -7t-6.5 -17z" />
    <glyph glyph-name="Uhorn" unicode="&#x1af;" horiz-adv-x="333" 
d="M233 728v-83h10q8 0 12.5 3.5t4.5 17.5v61h66v-69q0 -25 -10.5 -38.5t-25.5 -19.5t-31 -6.5t-26 0.5v-526q0 -32 -18.5 -50t-49.5 -18h-67q-32 0 -50 18t-18 50v660h79v-657h45v657h79z" />
    <glyph glyph-name="uni0214" unicode="&#x214;" 
d="M233 728v-660q0 -32 -18.5 -50t-49.5 -18h-67q-32 0 -50 18t-18 50v660h79v-657h45v657h79zM148 858v-14l62 -76h-60l-80 79v11h78zM40 858v-14l74 -76h-60l-94 79v11h80z" />
    <glyph glyph-name="Uogonek" unicode="&#x172;" 
d="M144 -103q-10 -17 -8 -26t23 -9h47v-62h-77q-21 0 -36 9t-21.5 24.5t-3.5 35.5t17 42l57 89h-44q-31 0 -49.5 18t-18.5 50v660h79v-657h46v657h78v-660q0 -10 -2.5 -21.5t-7.5 -19.5z" />
    <glyph glyph-name="Uhungarumlaut" unicode="&#x170;" 
d="M233 728v-660q0 -32 -18.5 -50t-49.5 -18h-67q-32 0 -50 18t-18 50v660h79v-657h45v657h79zM193 858v-11l-80 -79h-60l62 76v14h78zM303 858v-11l-94 -79h-60l74 76v14h80z" />
    <glyph glyph-name="uni0216" unicode="&#x216;" 
d="M233 728v-660q0 -32 -18.5 -50t-49.5 -18h-67q-32 0 -50 18t-18 50v660h79v-657h45v657h79zM136 851q22 0 41.5 -1.5t34 -9.5t23 -25t8.5 -47h-61q2 23 -6 31.5t-28 8.5h-30q-20 0 -28 -8.5t-6 -31.5h-61q0 30 8.5 47t23 25t34 9.5t41.5 1.5h6z" />
    <glyph glyph-name="Wcircumflex" unicode="&#x174;" horiz-adv-x="386" 
d="M232 728v-657h45v657h79v-660q0 -32 -18 -50t-50 -18h-57q-11 0 -22 5.5t-16 15.5q-5 -10 -16 -15.5t-22 -5.5h-57q-32 0 -50 18t-18 50v660h79v-657h45v657h78zM230 858v-8l81 -82h-65l-52 44l-52 -44h-65l80 82v8h73z" />
    <glyph glyph-name="Ycircumflex" unicode="&#x176;" horiz-adv-x="262" 
d="M91 0v225q-27 3 -45.5 21t-18.5 47v435h79v-432h50v432h79v-435q0 -29 -18.5 -47t-45.5 -21v-225h-80zM169 858v-8l81 -82h-65l-52 44l-52 -44h-65l80 82v8h73z" />
    <glyph glyph-name="uni0232" unicode="&#x232;" horiz-adv-x="265" 
d="M91 0v225q-27 3 -45.5 21t-18.5 47v435h79v-432h50v432h79v-435q0 -29 -18.5 -47t-45.5 -21v-225h-80zM28 823h206v-55h-206v55z" />
    <glyph glyph-name="Zacute" unicode="&#x179;" horiz-adv-x="217" 
d="M198 728l-85 -657h89v-71h-181l85 657h-91v71h183zM233 858v-11l-94 -79h-63l68 76v14h89z" />
    <glyph glyph-name="Zdotaccent" unicode="&#x17b;" horiz-adv-x="217" 
d="M198 728l-85 -657h89v-71h-181l85 657h-91v71h183zM57 811q0 21 14.5 37t35.5 16t35.5 -16t14.5 -37q0 -20 -14.5 -36.5t-35.5 -16.5t-35.5 16.5t-14.5 36.5z" />
    <glyph glyph-name="amacron" unicode="&#x101;" horiz-adv-x="265" 
d="M30 663q0 27 19 46t46 19h75q27 0 46 -19t19 -46v-663h-79v329h-47v-329h-79v663zM156 657h-47v-256h47v256zM29 823h206v-55h-206v55z" />
    <glyph glyph-name="abreve" unicode="&#x103;" horiz-adv-x="265" 
d="M30 663q0 27 19 46t46 19h75q27 0 46 -19t19 -46v-663h-79v329h-47v-329h-79v663zM156 657h-47v-256h47v256zM131 763q-22 0 -41.5 1.5t-34 9.5t-23 25t-8.5 47h61q-2 -23 6 -31.5t28 -8.5h30q20 0 28 8.5t6 31.5h61q0 -30 -8.5 -47t-23 -25t-34 -9.5t-41.5 -1.5h-6z" />
    <glyph glyph-name="uni0201" unicode="&#x201;" horiz-adv-x="265" 
d="M30 663q0 27 19 46t46 19h75q27 0 46 -19t19 -46v-663h-79v329h-47v-329h-79v663zM156 657h-47v-256h47v256zM150 858v-14l62 -76h-60l-80 79v11h78zM42 858v-14l74 -76h-60l-94 79v11h80z" />
    <glyph glyph-name="aringacute" unicode="&#x1fb;" horiz-adv-x="265" 
d="M246 945v-11l-81 -65q13 -8 20.5 -21.5t7.5 -29.5q0 -25 -17.5 -42.5t-42.5 -17.5t-42.5 17.5t-17.5 42.5q0 17 9.5 32t29.5 22l48 59v14h86zM109 817q0 -10 6.5 -16.5t16.5 -6.5t17 6.5t7 16.5t-7 17t-17 7t-16.5 -7t-6.5 -17zM30 663q0 27 19 46t46 19h75q27 0 46 -19
t19 -46v-663h-79v329h-47v-329h-79v663zM156 657h-47v-256h47v256z" />
    <glyph glyph-name="aogonek" unicode="&#x105;" horiz-adv-x="265" 
d="M30 663q0 27 19 46t46 19h75q27 0 46 -19t19 -46v-663h-8l-63 -103q-10 -17 -7.5 -26t23.5 -9h55v-62h-84q-21 0 -36 9t-21.5 24.5t-3.5 35.5t17 42l57 89h-8v329h-47v-329h-79v663zM156 657h-47v-256h47v256z" />
    <glyph glyph-name="uni0203" unicode="&#x203;" horiz-adv-x="265" 
d="M30 663q0 27 19 46t46 19h75q27 0 46 -19t19 -46v-663h-79v329h-47v-329h-79v663zM156 657h-47v-256h47v256zM137 851q22 0 41.5 -1.5t34 -9.5t23 -25t8.5 -47h-61q2 23 -6 31.5t-28 8.5h-30q-20 0 -28 -8.5t-6 -31.5h-61q0 30 8.5 47t23 25t34 9.5t41.5 1.5h6z" />
    <glyph glyph-name="aeacute" unicode="&#x1fd;" horiz-adv-x="343" 
d="M30 663q0 27 19 46t46 19h227v-71h-87v-256h73v-72h-73v-258h87v-71h-166v329h-47v-329h-79v663zM156 657h-47v-256h47v256zM303 858v-11l-94 -79h-63l68 76v14h89z" />
    <glyph glyph-name="ccircumflex" unicode="&#x109;" horiz-adv-x="258" 
d="M233 68q0 -32 -18 -50t-50 -18h-67q-32 0 -50 18t-18 50v592q0 30 18 49t50 19h67q32 0 50 -19t18 -49v-168h-79v165h-45v-586h45v165h79v-168v0zM168 858v-8l81 -82h-65l-52 44l-52 -44h-65l80 82v8h73z" />
    <glyph glyph-name="ccaron" unicode="&#x10d;" horiz-adv-x="258" 
d="M233 68q0 -32 -18 -50t-50 -18h-67q-32 0 -50 18t-18 50v592q0 30 18 49t50 19h67q32 0 50 -19t18 -49v-168h-79v165h-45v-586h45v165h79v-168v0zM168 770.953v7.99902l81 81.9951h-65l-52 -43.9971l-52 43.9971h-65l80 -81.9951v-7.99902h73z" />
    <glyph glyph-name="cdotaccent" unicode="&#x10b;" 
d="M233 68q0 -32 -18 -50t-50 -18h-67q-32 0 -50 18t-18 50v592q0 30 18 49t50 19h67q32 0 50 -19t18 -49v-168h-79v165h-45v-586h45v165h79v-168v0zM82 811q0 21 14.5 37t35.5 16t35.5 -16t14.5 -37q0 -20 -14.5 -36.5t-35.5 -16.5t-35.5 16.5t-14.5 36.5z" />
    <glyph glyph-name="cacute" unicode="&#x107;" 
d="M233 68q0 -32 -18 -50t-50 -18h-67q-32 0 -50 18t-18 50v592q0 30 18 49t50 19h67q32 0 50 -19t18 -49v-168h-79v165h-45v-586h45v165h79v-168v0zM259 858v-11l-94 -79h-63l68 76v14h89z" />
    <glyph glyph-name="dcaron" unicode="&#x10f;" horiz-adv-x="265" 
d="M156 657h-47v-586h47v586zM235 64q0 -26 -19 -45t-45 -19h-141v728h141q26 0 45 -19t19 -46v-599zM170 767.953v8l81 81.9941h-65l-52 -43.9971l-52 43.9971h-65l80 -81.9941v-8h73z" />
    <glyph glyph-name="dcroat" unicode="&#x111;" horiz-adv-x="270" 
d="M10 401h20v327h146q26 0 45 -19t19 -46v-599q0 -26 -19 -45t-45 -19h-146v329h-20v72zM161 657h-52v-256h25v-72h-25v-258h52v586z" />
    <glyph glyph-name="emacron" unicode="&#x113;" horiz-adv-x="211" 
d="M30 0v728h166v-71h-87v-256h73v-72h-73v-258h87v-71h-166zM11 823h206v-55h-206v55z" />
    <glyph glyph-name="ebreve" unicode="&#x115;" horiz-adv-x="211" 
d="M30 0v728h166v-71h-87v-256h73v-72h-73v-258h87v-71h-166zM111 763q-22 0 -41.5 1.5t-34 9.5t-23 25t-8.5 47h61q-2 -23 6 -31.5t28 -8.5h30q20 0 28 8.5t6 31.5h61q0 -30 -8.5 -47t-23 -25t-34 -9.5t-41.5 -1.5h-6z" />
    <glyph glyph-name="ecaron" unicode="&#x11b;" horiz-adv-x="211" 
d="M30 0v728h166v-71h-87v-256h73v-72h-73v-258h87v-71h-166zM150 767.953v8l81 81.9941h-65l-52 -43.9971l-52 43.9971h-65l80 -81.9941v-8h73z" />
    <glyph glyph-name="edotaccent" unicode="&#x117;" horiz-adv-x="211" 
d="M30 0v728h166v-71h-87v-256h73v-72h-73v-258h87v-71h-166zM63 811q0 21 14.5 37t35.5 16t35.5 -16t14.5 -37q0 -20 -14.5 -36.5t-35.5 -16.5t-35.5 16.5t-14.5 36.5z" />
    <glyph glyph-name="uni0205" unicode="&#x205;" horiz-adv-x="211" 
d="M30 0v728h166v-71h-87v-256h73v-72h-73v-258h87v-71h-166zM130 858v-14l62 -76h-60l-80 79v11h78zM22 858v-14l74 -76h-60l-94 79v11h80z" />
    <glyph glyph-name="eogonek" unicode="&#x119;" horiz-adv-x="211" 
d="M188 0l-63 -103q-10 -17 -7.5 -26t23.5 -9h55v-62h-84q-21 0 -36 9t-21.5 24.5t-3.5 35.5t17 42l57 89h-95v728h166v-71h-87v-256h73v-72h-73v-258h87v-71h-8z" />
    <glyph glyph-name="uni0207" unicode="&#x207;" horiz-adv-x="211" 
d="M30 0v728h166v-71h-87v-256h73v-72h-73v-258h87v-71h-166zM117 851q22 0 41.5 -1.5t34 -9.5t23 -25t8.5 -47h-61q2 23 -6 31.5t-28 8.5h-30q-20 0 -28 -8.5t-6 -31.5h-61q0 30 8.5 47t23 25t34 9.5t41.5 1.5h6z" />
    <glyph glyph-name="gbreve" unicode="&#x11f;" horiz-adv-x="264" 
d="M237 68q0 -32 -18 -50t-50 -18h-70q-31 0 -50 18t-19 50v592q0 30 19 49t50 19h70q32 0 50 -19t18 -49v-168h-79v165h-49v-586h49v258h-19v72h98v-333zM131 763q-22 0 -41.5 1.5t-34 9.5t-23 25t-8.5 47h61q-2 -23 6 -31.5t28 -8.5h30q20 0 28 8.5t6 31.5h61
q0 -30 -8.5 -47t-23 -25t-34 -9.5t-41.5 -1.5h-6z" />
    <glyph glyph-name="gcircumflex" unicode="&#x11d;" horiz-adv-x="264" 
d="M237 68q0 -32 -18 -50t-50 -18h-70q-31 0 -50 18t-19 50v592q0 30 19 49t50 19h70q32 0 50 -19t18 -49v-168h-79v165h-49v-586h49v258h-19v72h98v-333zM170 858v-8l81 -82h-65l-52 44l-52 -44h-65l80 82v8h73z" />
    <glyph glyph-name="gdotaccent" unicode="&#x121;" horiz-adv-x="264" 
d="M237 68q0 -32 -18 -50t-50 -18h-70q-31 0 -50 18t-19 50v592q0 30 19 49t50 19h70q32 0 50 -19t18 -49v-168h-79v165h-49v-586h49v258h-19v72h98v-333zM83 811q0 21 14.5 37t35.5 16t35.5 -16t14.5 -37q0 -20 -14.5 -36.5t-35.5 -16.5t-35.5 16.5t-14.5 36.5z" />
    <glyph glyph-name="gcommaaccent" unicode="&#x123;" horiz-adv-x="264" 
d="M237 68q0 -32 -18 -50t-50 -18h-70q-31 0 -50 18t-19 50v592q0 30 19 49t50 19h70q32 0 50 -19t18 -49v-168h-79v165h-49v-586h49v258h-19v72h98v-333zM108 -109q-13 6 -18 18t-2 25t13 23t28 12q32 3 44 -15t12 -41q0 -43 -25 -74.5t-66 -54.5l-25 27q29 18 37.5 38.5
t1.5 41.5z" />
    <glyph glyph-name="hcircumflex" unicode="&#x125;" horiz-adv-x="266" 
d="M157 401v327h79v-728h-79v329h-48v-329h-79v728h79v-327h48zM170 858v-8l81 -82h-65l-52 44l-52 -44h-65l80 82v8h73z" />
    <glyph glyph-name="hbar" unicode="&#x127;" horiz-adv-x="266" 
d="M10 592h20v136h79v-136h48v136h79v-136h20v-55h-20v-537h-79v329h-48v-329h-79v537h-20v55zM157 401v136h-48v-136h48z" />
    <glyph glyph-name="imacron" unicode="&#x12b;" horiz-adv-x="146" 
d="M33 728h80v-728h-80v728zM-29 823h206v-55h-206v55z" />
    <glyph glyph-name="uni012D" unicode="&#x12d;" horiz-adv-x="146" 
d="M33 728h80v-728h-80v728zM71 763q-22 0 -41.5 1.5t-34 9.5t-23 25t-8.5 47h61q-2 -23 6 -31.5t28 -8.5h30q20 0 28 8.5t6 31.5h61q0 -30 -8.5 -47t-23 -25t-34 -9.5t-41.5 -1.5h-6z" />
    <glyph glyph-name="itilde" unicode="&#x129;" horiz-adv-x="146" 
d="M33 728h80v-728h-80v728zM181 773q-23 -11 -43 -11q-17 0 -34 6.5t-33.5 14t-31 13.5t-26.5 5v-33h-45v70q13 6 23.5 8t19.5 2q17 0 34 -6t33.5 -13t31 -12.5t26.5 -5.5v33h45v-71z" />
    <glyph glyph-name="uni0209" unicode="&#x209;" horiz-adv-x="146" 
d="M33 728h80v-728h-80v728zM92 858v-14l62 -76h-60l-80 79v11h78zM-16 858v-14l74 -76h-60l-94 79v11h80z" />
    <glyph glyph-name="uni020B" unicode="&#x20b;" horiz-adv-x="146" 
d="M33 728h80v-728h-80v728zM77 851q22 0 41.5 -1.5t34 -9.5t23 -25t8.5 -47h-61q2 23 -6 31.5t-28 8.5h-30q-20 0 -28 -8.5t-6 -31.5h-61q0 30 8.5 47t23 25t34 9.5t41.5 1.5h6z" />
    <glyph glyph-name="iogonek" unicode="&#x12f;" horiz-adv-x="146" 
d="M33 728h80v-728h-9l-36 -101q-7 -18 -5 -27.5t23 -9.5h45v-62h-69q-43 0 -59 27t4 79l35 94h-9v728z" />
    <glyph glyph-name="jcircumflex" unicode="&#x135;" horiz-adv-x="258" 
d="M25 236h79v-165h45v657h79v-660q0 -32 -18 -50t-50 -18h-67q-32 0 -50 18t-18 50v168zM143 858v-8l81 -82h-65l-52 44l-52 -44h-65l80 82v8h73z" />
    <glyph glyph-name="dotlessj" unicode="&#x237;" horiz-adv-x="258" 
d="M25 236h79v-165h45v657h79v-660q0 -32 -18 -50t-50 -18h-67q-32 0 -50 18t-18 50v168z" />
    <glyph glyph-name="ij" unicode="&#x133;" horiz-adv-x="401" 
d="M33 728h80v-728h-80v728zM168 236h79v-165h45v657h79v-660q0 -32 -18 -50t-50 -18h-67q-32 0 -50 18t-18 50v168z" />
    <glyph glyph-name="kcommaaccent" unicode="&#x137;" horiz-adv-x="262" 
d="M109 728v-327h16l47 327h78l-54 -331q15 -2 23 -8t11.5 -14t4 -17t0.5 -17v-341h-79v329h-47v-329h-79v728h79zM109 -109q-13 6 -18 18t-2 25t13 23t28 12q32 3 44 -15t12 -41q0 -43 -25 -74.5t-66 -54.5l-25 27q29 18 37.5 38.5t1.5 41.5z" />
    <glyph glyph-name="kgreenlandic" unicode="&#x138;" horiz-adv-x="259" 
d="M151 0v234h-43v-234h-78v506h78v-210h21l38 210h74l-41 -216q15 -7 22 -20.5t7 -31.5v-238h-78z" />
    <glyph glyph-name="ldot" unicode="&#x140;" horiz-adv-x="265" 
d="M30 0v728h79v-657h82v-71h-161zM152 365q0 21 14.5 37t35.5 16t35.5 -16t14.5 -37q0 -20 -14.5 -36.5t-35.5 -16.5t-35.5 16.5t-14.5 36.5z" />
    <glyph glyph-name="lcommaaccent" unicode="&#x13c;" horiz-adv-x="206" 
d="M30 0v728h79v-657h82v-71h-161zM86 -109q-13 6 -18 18t-2 25t13 23t28 12q32 3 44 -15t12 -41q0 -43 -25 -74.5t-66 -54.5l-25 27q29 18 37.5 38.5t1.5 41.5z" />
    <glyph glyph-name="lacute" unicode="&#x13a;" horiz-adv-x="206" 
d="M30 0v728h79v-657h82v-71h-161zM195 858v-11l-94 -79h-63l68 76v14h89z" />
    <glyph glyph-name="lcaron" unicode="&#x13e;" horiz-adv-x="286" 
d="M200 648q-20 2 -28.5 14t-8.5 27q0 20 12.5 34.5t37.5 14.5q28 0 40.5 -16t12.5 -39q0 -40 -22 -69t-59 -51l-21 20q20 15 30 31.5t6 33.5zM30 0v728h79v-657h82v-71h-161z" />
    <glyph glyph-name="ncaron" unicode="&#x148;" horiz-adv-x="282" 
d="M100 728l74 -366v366h78v-728h-70l-74 376v-376h-78v728h70zM178 767.953v8l81 81.9941h-65l-52 -43.9971l-52 43.9971h-65l80 -81.9941v-8h73z" />
    <glyph glyph-name="nacute" unicode="&#x144;" horiz-adv-x="282" 
d="M100 728l74 -366v366h78v-728h-70l-74 376v-376h-78v728h70zM268 858v-11l-94 -79h-63l68 76v14h89z" />
    <glyph glyph-name="ncommaaccent" unicode="&#x146;" horiz-adv-x="282" 
d="M100 728l74 -366v366h78v-728h-70l-74 376v-376h-78v728h70zM123 -109q-13 6 -18 18t-2 25t13 23t28 12q32 3 44 -15t12 -41q0 -43 -25 -74.5t-66 -54.5l-25 27q29 18 37.5 38.5t1.5 41.5z" />
    <glyph glyph-name="napostrophe" unicode="&#x149;" horiz-adv-x="836" 
d="M537 242q-154 -39 -310 0q10 -17 24.5 -35t34 -34t43.5 -26t53 -10q28 0 52 10t43.5 26t34.5 34t25 35zM600 340h-436l53 -84q83 -20 164.5 -19.5t164.5 19.5zM323 453q-13 27 -21 56t-25 52q-3 4 -12.5 0t-20 -10.5t-18 -13t-5.5 -8.5l72 -90q1 -2 6.5 -0.5t11 4
t9.5 5.5t3 5zM419 371l-37 89l-36 -89h73zM542 529q1 2 -6 8.5t-17 13t-19.5 10.5t-12.5 0q-18 -23 -26.5 -52t-19.5 -56q-2 -2 2 -5t10 -5.5t11 -4t7 0.5zM657 371q0 -57 -21.5 -107t-59 -87.5t-87.5 -59t-107 -21.5t-107 21.5t-87.5 59t-59.5 87.5t-22 107t22 107
t59.5 87.5t87.5 59t107 21.5t107 -21.5t87.5 -59t59 -87.5t21.5 -107zM677 371q0 61 -23 115t-63 94t-94 63.5t-115 23.5t-115 -23.5t-94.5 -63.5t-64 -94t-23.5 -115t23.5 -114.5t64 -94t94.5 -64t115 -23.5t115 23.5t94 64t63 94t23 114.5zM707 104h-26v-69h-19v69h-25v16
h70v-16zM724 371q0 -71 -27 -133t-73.5 -109t-109 -74t-132.5 -27q-71 0 -133 27t-108.5 74t-73.5 109t-27 133t27 133.5t73.5 109t108.5 73.5t133 27q70 0 132.5 -27t109 -73.5t73.5 -109t27 -133.5zM796 35h-15v69l-17 -69h-16l-17 69v-69h-16v85h25l17 -66l14 66h25v-85z
" />
    <glyph glyph-name="eng" unicode="&#x14b;" horiz-adv-x="282" 
d="M100 728l74 -370v370h78v-860q0 -32 -18 -50t-50 -18h-78v78h68l-1 170l-65 328v-376h-78v728h70z" />
    <glyph glyph-name="omacron" unicode="&#x14d;" 
d="M155 71v586h-46v-586h46zM233 68q0 -32 -18.5 -50t-49.5 -18h-67q-31 0 -49.5 18t-18.5 50v592q0 30 18.5 49t49.5 19h67q31 0 49.5 -19t18.5 -49v-592zM29 823h206v-55h-206v55z" />
    <glyph glyph-name="obreve" unicode="&#x14f;" 
d="M155 71v586h-46v-586h46zM233 68q0 -32 -18.5 -50t-49.5 -18h-67q-31 0 -49.5 18t-18.5 50v592q0 30 18.5 49t49.5 19h67q31 0 49.5 -19t18.5 -49v-592zM130 763q-22 0 -41.5 1.5t-34 9.5t-23 25t-8.5 47h61q-2 -23 6 -31.5t28 -8.5h30q20 0 28 8.5t6 31.5h61
q0 -30 -8.5 -47t-23 -25t-34 -9.5t-41.5 -1.5h-6z" />
    <glyph glyph-name="ohorn" unicode="&#x1a1;" horiz-adv-x="329" 
d="M233 645h6q8 0 12.5 3.5t4.5 17.5v61h66v-69q0 -25 -10 -38.5t-24 -19.5t-29.5 -6.5t-25.5 0.5v-526q0 -32 -18.5 -50t-49.5 -18h-67q-31 0 -49.5 18t-18.5 50v592q0 30 18.5 49t49.5 19h67q31 0 49.5 -19t18.5 -49v-15zM155 71v586h-46v-586h46z" />
    <glyph glyph-name="oslashacute" unicode="&#x1ff;" 
d="M98 0q-16 0 -32 7l-11 -32l-24 8l13 39q-14 17 -14 46v592q0 30 18.5 49t49.5 19h67q16 0 32 -7l11 32l24 -8l-13 -39q14 -17 14 -46v-592q0 -32 -18.5 -50t-49.5 -18h-67zM155 71v353l-46 -255v-98h46zM109 304l46 257v96h-46v-353zM255 858v-11l-94 -79h-63l68 76v14
h89z" />
    <glyph glyph-name="uni020D" unicode="&#x20d;" 
d="M155 71v586h-46v-586h46zM233 68q0 -32 -18.5 -50t-49.5 -18h-67q-31 0 -49.5 18t-18.5 50v592q0 30 18.5 49t49.5 19h67q31 0 49.5 -19t18.5 -49v-592zM148 858v-14l62 -76h-60l-80 79v11h78zM40 858v-14l74 -76h-60l-94 79v11h80z" />
    <glyph glyph-name="ohungarumlaut" unicode="&#x151;" 
d="M155 71v586h-46v-586h46zM233 68q0 -32 -18.5 -50t-49.5 -18h-67q-31 0 -49.5 18t-18.5 50v592q0 30 18.5 49t49.5 19h67q31 0 49.5 -19t18.5 -49v-592zM193 858v-11l-80 -79h-60l62 76v14h78zM303 858v-11l-94 -79h-60l74 76v14h80z" />
    <glyph glyph-name="uni020F" unicode="&#x20f;" 
d="M155 71v586h-46v-586h46zM233 68q0 -32 -18.5 -50t-49.5 -18h-67q-31 0 -49.5 18t-18.5 50v592q0 30 18.5 49t49.5 19h67q31 0 49.5 -19t18.5 -49v-592zM136 851q22 0 41.5 -1.5t34 -9.5t23 -25t8.5 -47h-61q2 23 -6 31.5t-28 8.5h-30q-20 0 -28 -8.5t-6 -31.5h-61
q0 30 8.5 47t23 25t34 9.5t41.5 1.5h6z" />
    <glyph glyph-name="rcaron" unicode="&#x159;" horiz-adv-x="265" 
d="M170 728q27 0 46 -19t19 -45v-242q0 -8 -1 -17.5t-5.5 -18t-13.5 -14.5t-24 -8q31 -5 37.5 -21.5t6.5 -32.5v-310h-79v329h-47v-329h-79v728h140zM156 401v256h-47v-256h47zM169 767.953v8l81 81.9941h-65l-52 -43.9971l-52 43.9971h-65l80 -81.9941v-8h73z" />
    <glyph glyph-name="racute" unicode="&#x155;" horiz-adv-x="265" 
d="M170 728q27 0 46 -19t19 -45v-242q0 -8 -1 -17.5t-5.5 -18t-13.5 -14.5t-24 -8q31 -5 37.5 -21.5t6.5 -32.5v-310h-79v329h-47v-329h-79v728h140zM156 401v256h-47v-256h47zM251 858v-11l-94 -79h-63l68 76v14h89z" />
    <glyph glyph-name="rcommaaccent" unicode="&#x157;" horiz-adv-x="265" 
d="M170 728q27 0 46 -19t19 -45v-242q0 -8 -1 -17.5t-5.5 -18t-13.5 -14.5t-24 -8q31 -5 37.5 -21.5t6.5 -32.5v-310h-79v329h-47v-329h-79v728h140zM156 401v256h-47v-256h47zM109 -109q-13 6 -18 18t-2 25t13 23t28 12q32 3 44 -15t12 -41q0 -43 -25 -74.5t-66 -54.5
l-25 27q29 18 37.5 38.5t1.5 41.5z" />
    <glyph glyph-name="uni0211" unicode="&#x211;" horiz-adv-x="265" 
d="M170 728q27 0 46 -19t19 -45v-242q0 -8 -1 -17.5t-5.5 -18t-13.5 -14.5t-24 -8q31 -5 37.5 -21.5t6.5 -32.5v-310h-79v329h-47v-329h-79v728h140zM156 401v256h-47v-256h47zM147 858v-14l62 -76h-60l-80 79v11h78zM39 858v-14l74 -76h-60l-94 79v11h80z" />
    <glyph glyph-name="uni0213" unicode="&#x213;" horiz-adv-x="265" 
d="M170 728q27 0 46 -19t19 -45v-242q0 -8 -1 -17.5t-5.5 -18t-13.5 -14.5t-24 -8q31 -5 37.5 -21.5t6.5 -32.5v-310h-79v329h-47v-329h-79v728h140zM156 401v256h-47v-256h47zM132 851q22 0 41.5 -1.5t34 -9.5t23 -25t8.5 -47h-61q2 23 -6 31.5t-28 8.5h-30q-20 0 -28 -8.5
t-6 -31.5h-61q0 30 8.5 47t23 25t34 9.5t41.5 1.5h6z" />
    <glyph glyph-name="scircumflex" unicode="&#x15d;" horiz-adv-x="253" 
d="M149 236q0 9 -2 15t-7 14l-104 174q-8 14 -9.5 24t-1.5 22v182q0 32 18 46.5t50 14.5h67q32 0 50 -14.5t18 -46.5v-175h-79v165h-45v-165q0 -9 2.5 -15.5t6.5 -13.5l98 -164q6 -9 9 -16t5 -14t2.5 -16t0.5 -22v-170q0 -32 -18 -46.5t-50 -14.5h-67q-32 0 -50 14.5
t-18 46.5v175h79v-165h45v165zM163 858v-8l81 -82h-65l-52 44l-52 -44h-65l80 82v8h73z" />
    <glyph glyph-name="sacute" unicode="&#x15b;" horiz-adv-x="253" 
d="M149 236q0 9 -2 15t-7 14l-104 174q-8 14 -9.5 24t-1.5 22v182q0 32 18 46.5t50 14.5h67q32 0 50 -14.5t18 -46.5v-175h-79v165h-45v-165q0 -9 2.5 -15.5t6.5 -13.5l98 -164q6 -9 9 -16t5 -14t2.5 -16t0.5 -22v-170q0 -32 -18 -46.5t-50 -14.5h-67q-32 0 -50 14.5
t-18 46.5v175h79v-165h45v165zM256 858v-11l-94 -79h-63l68 76v14h89z" />
    <glyph glyph-name="uni015F" unicode="&#x15f;" horiz-adv-x="253" 
d="M93 0q-32 0 -50 14.5t-18 46.5v175h79v-165h45v165q0 9 -2 15t-7 14l-104 174q-8 14 -9.5 24t-1.5 22v182q0 32 18 46.5t50 14.5h67q32 0 50 -14.5t18 -46.5v-175h-79v165h-45v-165q0 -9 2.5 -15.5t6.5 -13.5l98 -164q6 -9 9 -16t5 -14t2.5 -16t0.5 -22v-170
q0 -32 -18 -46.5t-50 -14.5h-13l-17 -25q6 2 13 3t12 1q26 0 43 -15t17 -42q0 -36 -25 -53t-57 -18q-20 -1 -41.5 5.5t-38.5 18.5l15 38q8 -7 22 -12.5t27 -5.5q12 0 22 7t10 21q0 8 -6.5 15.5t-17.5 7.5q-7 0 -13.5 -1t-14.5 -6l-27 17l31 44h-8z" />
    <glyph glyph-name="uni0219" unicode="&#x219;" horiz-adv-x="253" 
d="M149 236q0 9 -2 15t-7 14l-104 174q-8 14 -9.5 24t-1.5 22v182q0 32 18 46.5t50 14.5h67q32 0 50 -14.5t18 -46.5v-175h-79v165h-45v-165q0 -9 2.5 -15.5t6.5 -13.5l98 -164q6 -9 9 -16t5 -14t2.5 -16t0.5 -22v-170q0 -32 -18 -46.5t-50 -14.5h-67q-32 0 -50 14.5
t-18 46.5v175h79v-165h45v165zM103 -109q-13 6 -18 18t-2 25t13 23t28 12q32 3 44 -15t12 -41q0 -43 -25 -74.5t-66 -54.5l-25 27q29 18 37.5 38.5t1.5 41.5z" />
    <glyph glyph-name="uni0163" unicode="&#x163;" horiz-adv-x="231" 
d="M73 0v657h-58v71h201v-71h-58v-657h-21l-17 -25q6 2 13 3t12 1q26 0 43 -15t17 -42q0 -36 -25 -53t-57 -18q-20 -1 -41.5 5.5t-38.5 18.5l15 38q8 -7 22 -12.5t27 -5.5q12 0 22 7t10 21q0 8 -6.5 15.5t-17.5 7.5q-7 0 -13.5 -1t-14.5 -6l-27 17l31 44h-18z" />
    <glyph glyph-name="tbar" unicode="&#x167;" horiz-adv-x="231" 
d="M25 392h48v265h-58v71h201v-71h-58v-265h48v-55h-48v-337h-85v337h-48v55z" />
    <glyph glyph-name="tcaron" unicode="&#x165;" horiz-adv-x="231" 
d="M216 728v-71h-58v-657h-85v657h-58v71h201zM154 767.953v8l81 81.9941h-65l-52 -43.9971l-52 43.9971h-65l80 -81.9941v-8h73z" />
    <glyph glyph-name="uni021B" unicode="&#x21b;" horiz-adv-x="231" 
d="M216 728v-71h-58v-657h-85v657h-58v71h201zM87 -109q-13 6 -18 18t-2 25t13 23t28 12q32 3 44 -15t12 -41q0 -43 -25 -74.5t-66 -54.5l-25 27q29 18 37.5 38.5t1.5 41.5z" />
    <glyph glyph-name="umacron" unicode="&#x16b;" 
d="M233 728v-660q0 -32 -18.5 -50t-49.5 -18h-67q-32 0 -50 18t-18 50v660h79v-657h45v657h79zM29 823h206v-55h-206v55z" />
    <glyph glyph-name="ubreve" unicode="&#x16d;" 
d="M233 728v-660q0 -32 -18.5 -50t-49.5 -18h-67q-32 0 -50 18t-18 50v660h79v-657h45v657h79zM130 763q-22 0 -41.5 1.5t-34 9.5t-23 25t-8.5 47h61q-2 -23 6 -31.5t28 -8.5h30q20 0 28 8.5t6 31.5h61q0 -30 -8.5 -47t-23 -25t-34 -9.5t-41.5 -1.5h-6z" />
    <glyph glyph-name="utilde" unicode="&#x169;" 
d="M233 728v-660q0 -32 -18.5 -50t-49.5 -18h-67q-32 0 -50 18t-18 50v660h79v-657h45v657h79zM240 773q-23 -11 -43 -11q-17 0 -34 6.5t-33.5 14t-31 13.5t-26.5 5v-33h-45v70q13 6 23.5 8t19.5 2q17 0 34 -6t33.5 -13t31 -12.5t26.5 -5.5v33h45v-71z" />
    <glyph glyph-name="uring" unicode="&#x16f;" 
d="M233 728v-660q0 -32 -18.5 -50t-49.5 -18h-67q-32 0 -50 18t-18 50v660h79v-657h45v657h79zM72 818q0 25 17.5 42.5t42.5 17.5t42.5 -17.5t17.5 -42.5t-17.5 -42.5t-42.5 -17.5t-42.5 17.5t-17.5 42.5zM108 817q0 -10 6.5 -16.5t16.5 -6.5t17 6.5t7 16.5t-7 17t-17 7
t-16.5 -7t-6.5 -17z" />
    <glyph glyph-name="uhorn" unicode="&#x1b0;" horiz-adv-x="333" 
d="M233 728v-83h10q8 0 12.5 3.5t4.5 17.5v61h66v-69q0 -25 -10.5 -38.5t-25.5 -19.5t-31 -6.5t-26 0.5v-526q0 -32 -18.5 -50t-49.5 -18h-67q-32 0 -50 18t-18 50v660h79v-657h45v657h79z" />
    <glyph glyph-name="uni0215" unicode="&#x215;" 
d="M233 728v-660q0 -32 -18.5 -50t-49.5 -18h-67q-32 0 -50 18t-18 50v660h79v-657h45v657h79zM148 858v-14l62 -76h-60l-80 79v11h78zM40 858v-14l74 -76h-60l-94 79v11h80z" />
    <glyph glyph-name="uogonek" unicode="&#x173;" 
d="M144 -103q-10 -17 -8 -26t23 -9h47v-62h-77q-21 0 -36 9t-21.5 24.5t-3.5 35.5t17 42l57 89h-44q-31 0 -49.5 18t-18.5 50v660h79v-657h46v657h78v-660q0 -10 -2.5 -21.5t-7.5 -19.5z" />
    <glyph glyph-name="uhungarumlaut" unicode="&#x171;" 
d="M233 728v-660q0 -32 -18.5 -50t-49.5 -18h-67q-32 0 -50 18t-18 50v660h79v-657h45v657h79zM193 858v-11l-80 -79h-60l62 76v14h78zM303 858v-11l-94 -79h-60l74 76v14h80z" />
    <glyph glyph-name="uni0217" unicode="&#x217;" 
d="M233 728v-660q0 -32 -18.5 -50t-49.5 -18h-67q-32 0 -50 18t-18 50v660h79v-657h45v657h79zM136 851q22 0 41.5 -1.5t34 -9.5t23 -25t8.5 -47h-61q2 23 -6 31.5t-28 8.5h-30q-20 0 -28 -8.5t-6 -31.5h-61q0 30 8.5 47t23 25t34 9.5t41.5 1.5h6z" />
    <glyph glyph-name="wcircumflex" unicode="&#x175;" horiz-adv-x="386" 
d="M232 728v-657h45v657h79v-660q0 -32 -18 -50t-50 -18h-57q-11 0 -22 5.5t-16 15.5q-5 -10 -16 -15.5t-22 -5.5h-57q-32 0 -50 18t-18 50v660h79v-657h45v657h78zM230 858v-8l81 -82h-65l-52 44l-52 -44h-65l80 82v8h73z" />
    <glyph glyph-name="ycircumflex" unicode="&#x177;" horiz-adv-x="262" 
d="M91 0v225q-27 3 -45.5 21t-18.5 47v435h79v-432h50v432h79v-435q0 -29 -18.5 -47t-45.5 -21v-225h-80zM169 858v-8l81 -82h-65l-52 44l-52 -44h-65l80 82v8h73z" />
    <glyph glyph-name="uni0233" unicode="&#x233;" horiz-adv-x="265" 
d="M91 0v225q-27 3 -45.5 21t-18.5 47v435h79v-432h50v432h79v-435q0 -29 -18.5 -47t-45.5 -21v-225h-80zM28 823h206v-55h-206v55z" />
    <glyph glyph-name="zacute" unicode="&#x17a;" horiz-adv-x="217" 
d="M198 728l-85 -657h89v-71h-181l85 657h-91v71h183zM233 858v-11l-94 -79h-63l68 76v14h89z" />
    <glyph glyph-name="zdotaccent" unicode="&#x17c;" horiz-adv-x="217" 
d="M198 728l-85 -657h89v-71h-181l85 657h-91v71h183zM57 811q0 21 14.5 37t35.5 16t35.5 -16t14.5 -37q0 -20 -14.5 -36.5t-35.5 -16.5t-35.5 16.5t-14.5 36.5z" />
    <glyph glyph-name="longs" unicode="&#x17f;" horiz-adv-x="194" 
d="M108 0h-78v437h-20v69h20v155q0 31 18 49t48 18h85v-71h-73v-657z" />
    <glyph glyph-name="Eng.001" unicode="&#xe011;" horiz-adv-x="276" 
d="M246 68q0 -32 -18 -50t-50 -18h-45v78h34v579h-58v-657h-79v728h152q26 0 45 -19t19 -46v-595z" />
    <glyph glyph-name="Eng.002" unicode="&#xe012;" horiz-adv-x="266" 
d="M236 -132q0 -32 -18 -50t-50 -18h-59v78h48v779h-48v-657h-79v728h142q26 0 45 -19t19 -46v-795z" />
    <glyph glyph-name="lira" unicode="&#x20a4;" horiz-adv-x="273" 
d="M40 277v65h-20v62h20v256q0 30 18 49t50 19h67q32 0 50 -19t18 -49v-168h-79v165h-45v-253h109v-62h-109v-65h109v-63h-109v-143h124v-71h-223v71h20v143h-20v63h20z" />
    <glyph glyph-name="uni20B9" unicode="&#x20b9;" horiz-adv-x="275" 
d="M156 564v93h-126v71h225v-71h-27q7 -11 7 -28v-65h20v-71h-20v-72q0 -8 -1 -17.5t-5.5 -17.5t-13.5 -14t-24 -8q31 -5 37.5 -21.5t6.5 -32.5v-310h-79v329h-126v71h126v93h-126v71h126z" />
    <glyph glyph-name="uni20BA" unicode="&#x20ba;" horiz-adv-x="275" 
d="M20 533l20 8v187h79v-154l94 39v-60l-94 -39v-56l94 39v-61l-94 -39v-326h47v275h79v-282q0 -26 -19 -45t-45 -19h-141v364l-20 -8v61l20 8v56l-20 -8v60z" />
    <glyph glyph-name="jcircumflex.001" horiz-adv-x="258" 
d="M25 236h79v-165h45v657h79v-660q0 -32 -18 -50t-50 -18h-67q-32 0 -50 18t-18 50v168zM143 858v-8l81 -82h-65l-52 44l-52 -44h-65l80 82v8h73z" />
    <glyph glyph-name="dotlessj.001" horiz-adv-x="258" 
d="M25 236h79v-165h45v657h79v-660q0 -32 -18 -50t-50 -18h-67q-32 0 -50 18t-18 50v168z" />
    <glyph glyph-name="ij.001" unicode="&#xe015;" horiz-adv-x="278" 
d="M30 0v506h78v-506h-78zM19 589q0 21 14.5 37t35.5 16t35.5 -16t14.5 -37q0 -20 -14.5 -36.5t-35.5 -16.5t-35.5 16.5t-14.5 36.5zM170 -200h78v706h-78v-706zM159 589q0 21 14.5 37t35.5 16t35.5 -16t14.5 -37q0 -20 -14.5 -36.5t-35.5 -16.5t-35.5 16.5t-14.5 36.5z" />
    <glyph glyph-name="Aring.001" unicode="&#xe016;" horiz-adv-x="265" 
d="M73 783q0 25 17.5 42.5t42.5 17.5t42.5 -17.5t17.5 -42.5q0 -19 -10 -33.5t-26 -21.5h13q27 0 46 -19t19 -46v-663h-79v329h-47v-329h-79v663q0 27 19 46t46 19h13q-16 7 -25.5 21.5t-9.5 33.5zM156 657h-47v-256h47v256zM109 782q0 -10 6.5 -16.5t16.5 -6.5t17 6.5
t7 16.5t-7 17t-17 7t-16.5 -7t-6.5 -17z" />
    <glyph glyph-name="aring.001" horiz-adv-x="265" 
d="M73 783q0 25 17.5 42.5t42.5 17.5t42.5 -17.5t17.5 -42.5q0 -19 -10 -33.5t-26 -21.5h13q27 0 46 -19t19 -46v-663h-79v329h-47v-329h-79v663q0 27 19 46t46 19h13q-16 7 -25.5 21.5t-9.5 33.5zM156 657h-47v-256h47v256zM109 782q0 -10 6.5 -16.5t16.5 -6.5t17 6.5
t7 16.5t-7 17t-17 7t-16.5 -7t-6.5 -17z" />
    <glyph glyph-name="A" unicode="A" horiz-adv-x="265" 
d="M30 663q0 27 19 46t46 19h75q27 0 46 -19t19 -46v-663h-79v329h-47v-329h-79v663zM156 657h-47v-256h47v256z" />
    <glyph glyph-name="B" unicode="B" horiz-adv-x="265" 
d="M156 401v256h-47v-256h47zM109 329v-258h47v258h-47zM235 419q0 -8 -1 -16.5t-5.5 -16.5t-13 -14t-23.5 -8q15 -2 23.5 -8t13 -14t5.5 -17t1 -16v-245q0 -26 -19 -45t-45 -19h-141v728h141q26 0 45 -19t19 -46v-244z" />
    <glyph glyph-name="hungarumlaut" unicode="&#x2dd;" horiz-adv-x="290" 
d="M160 858v-11l-80 -79h-60l62 76v14h78zM270 858v-11l-94 -79h-60l74 76v14h80z" />
    <glyph glyph-name="ampersand.002" unicode="&#xe018;" horiz-adv-x="278" 
d="M94 0q-26 0 -45 19t-19 46v244q0 7 1 16t5.5 17t13 14t23.5 8q-15 2 -23.5 8t-13 14t-5.5 16.5t-1 16.5v244q0 27 19 46t45 19h77q26 0 45 -19t19 -46v-171h-79v165h-47v-256h154v-72h-28v-329h-141zM156 71v258h-47v-258h47z" />
    <glyph glyph-name="ampersand.003" unicode="&#xe019;" horiz-adv-x="265" 
d="M189 327h-80v-177h47v96h79v-102q0 -27 -19 -46t-45 -19h-5v-79h-68v79h-4q-26 0 -45 19t-19 46v166q0 7 1 16t5.5 16.5t13 13.5t23.5 8q-15 2 -23.5 8t-13 14.5t-5.5 17t-1 16.5v164q0 27 19 46t45 19h4v79h68v-79h5q26 0 45 -19t19 -46v-102h-79v96h-47v-177h80v-74z
" />
    <glyph glyph-name="ampersand.004" unicode="&#xe020;" horiz-adv-x="270" 
d="M94 0q-26 0 -45 19t-19 46v272q0 7 1 16t5.5 17t13 14t23.5 8q-15 2 -23.5 8t-13 14t-5.5 16.5t-1 16.5v216q0 27 19 46t45 19h77q26 0 45 -19t19 -46v-171h-79v165h-47v-230h96v-68h-96v-288h47v223h99v-59h-23v-235h-138z" />
    <glyph glyph-name="a" unicode="a" horiz-adv-x="265" 
d="M30 663q0 27 19 46t46 19h75q27 0 46 -19t19 -46v-663h-79v329h-47v-329h-79v663zM156 657h-47v-256h47v256z" />
    <glyph glyph-name="b" unicode="b" horiz-adv-x="265" 
d="M156 401v256h-47v-256h47zM109 329v-258h47v258h-47zM235 419q0 -8 -1 -16.5t-5.5 -16.5t-13 -14t-23.5 -8q15 -2 23.5 -8t13 -14t5.5 -17t1 -16v-245q0 -26 -19 -45t-45 -19h-141v728h141q26 0 45 -19t19 -46v-244z" />
    <glyph glyph-name="c" unicode="c" horiz-adv-x="258" 
d="M233 68q0 -32 -18 -50t-50 -18h-67q-32 0 -50 18t-18 50v592q0 30 18 49t50 19h67q32 0 50 -19t18 -49v-168h-79v165h-45v-586h45v165h79v-168v0z" />
    <glyph glyph-name="d" unicode="d" horiz-adv-x="265" 
d="M156 657h-47v-586h47v586zM235 64q0 -26 -19 -45t-45 -19h-141v728h141q26 0 45 -19t19 -46v-599z" />
    <glyph glyph-name="e" unicode="e" horiz-adv-x="211" 
d="M30 0v728h166v-71h-87v-256h73v-72h-73v-258h87v-71h-166z" />
    <glyph glyph-name="f" unicode="f" horiz-adv-x="211" 
d="M30 0v728h166v-71h-87v-256h73v-72h-73v-329h-79z" />
    <glyph glyph-name="g" unicode="g" horiz-adv-x="264" 
d="M237 68q0 -32 -18 -50t-50 -18h-70q-31 0 -50 18t-19 50v592q0 30 19 49t50 19h70q32 0 50 -19t18 -49v-168h-79v165h-49v-586h49v258h-19v72h98v-333z" />
    <glyph glyph-name="h" unicode="h" horiz-adv-x="266" 
d="M157 401v327h79v-728h-79v329h-48v-329h-79v728h79v-327h48z" />
    <glyph glyph-name="i" unicode="i" horiz-adv-x="146" 
d="M33 728h80v-728h-80v728z" />
    <glyph glyph-name="j" unicode="j" horiz-adv-x="258" 
d="M25 236h79v-165h45v657h79v-660q0 -32 -18 -50t-50 -18h-67q-32 0 -50 18t-18 50v168z" />
    <glyph glyph-name="k" unicode="k" horiz-adv-x="262" 
d="M109 728v-327h16l47 327h78l-54 -331q15 -2 23 -8t11.5 -14t4 -17t0.5 -17v-341h-79v329h-47v-329h-79v728h79z" />
    <glyph glyph-name="l" unicode="l" horiz-adv-x="206" 
d="M30 0v728h79v-657h82v-71h-161z" />
    <glyph glyph-name="m" unicode="m" horiz-adv-x="376" 
d="M167 57l-58 359v-416h-79v728h93l65 -399l65 399h93v-728h-79v416l-58 -359h-42z" />
    <glyph glyph-name="n" unicode="n" horiz-adv-x="282" 
d="M100 728l74 -366v366h78v-728h-70l-74 376v-376h-78v728h70z" />
    <glyph glyph-name="o" unicode="o" 
d="M155 71v586h-46v-586h46zM233 68q0 -32 -18.5 -50t-49.5 -18h-67q-31 0 -49.5 18t-18.5 50v592q0 30 18.5 49t49.5 19h67q31 0 49.5 -19t18.5 -49v-592z" />
    <glyph glyph-name="p" unicode="p" horiz-adv-x="260" 
d="M109 329v-329h-79v728h139q27 0 46.5 -19t19.5 -46v-273q0 -26 -18 -43.5t-45 -17.5h-63zM156 401v256h-47v-256h47z" />
    <glyph glyph-name="q" unicode="q" 
d="M96 0q-30 1 -48 18.5t-18 49.5v592q0 30 18.5 49t49.5 19h67q31 0 49.5 -19t18.5 -49v-592q0 -32 -18 -49.5t-48 -18.5v-60h-71v60zM155 71v586h-46v-586h46z" />
    <glyph glyph-name="r" unicode="r" horiz-adv-x="265" 
d="M170 728q27 0 46 -19t19 -45v-242q0 -8 -1 -17.5t-5.5 -18t-13.5 -14.5t-24 -8q31 -5 37.5 -21.5t6.5 -32.5v-310h-79v329h-47v-329h-79v728h140zM156 401v256h-47v-256h47z" />
    <glyph glyph-name="s" unicode="s" horiz-adv-x="253" 
d="M149 236q0 9 -2 15t-7 14l-104 174q-8 14 -9.5 24t-1.5 22v182q0 32 18 46.5t50 14.5h67q32 0 50 -14.5t18 -46.5v-175h-79v165h-45v-165q0 -9 2.5 -15.5t6.5 -13.5l98 -164q6 -9 9 -16t5 -14t2.5 -16t0.5 -22v-170q0 -32 -18 -46.5t-50 -14.5h-67q-32 0 -50 14.5
t-18 46.5v175h79v-165h45v165z" />
    <glyph glyph-name="t" unicode="t" horiz-adv-x="231" 
d="M216 728v-71h-58v-657h-85v657h-58v71h201z" />
    <glyph glyph-name="u" unicode="u" 
d="M233 728v-660q0 -32 -18.5 -50t-49.5 -18h-67q-32 0 -50 18t-18 50v660h79v-657h45v657h79z" />
    <glyph glyph-name="v" unicode="v" 
d="M101 0l-39 48q-9 12 -15.5 21.5t-10 20t-5 24t-1.5 32.5v582h79v-632h45v632h79v-582q0 -19 -1.5 -32.5t-5.5 -24t-10 -20t-15 -21.5l-39 -48h-61z" />
    <glyph glyph-name="w" unicode="w" horiz-adv-x="386" 
d="M232 728v-657h45v657h79v-660q0 -32 -18 -50t-50 -18h-57q-11 0 -22 5.5t-16 15.5q-5 -10 -16 -15.5t-22 -5.5h-57q-32 0 -50 18t-18 50v660h79v-657h45v657h78z" />
    <glyph glyph-name="x" unicode="x" 
d="M109 329v-329h-79v309q0 7 1 16t5.5 17t13 14t23.5 8q-15 2 -23.5 8t-13 14t-5.5 16.5t-1 16.5v309h79v-327h45v327h79v-309q0 -8 -1 -16.5t-5.5 -16.5t-13 -14t-23.5 -8q15 -2 23.5 -8t13 -14t5.5 -17t1 -16v-309h-79v329h-45z" />
    <glyph glyph-name="y" unicode="y" horiz-adv-x="262" 
d="M91 0v225q-27 3 -45.5 21t-18.5 47v435h79v-432h50v432h79v-435q0 -29 -18.5 -47t-45.5 -21v-225h-80z" />
    <glyph glyph-name="z" unicode="z" horiz-adv-x="217" 
d="M198 728l-85 -657h89v-71h-181l85 657h-91v71h183z" />
    </font>
</defs>
</svg>
